<?xml version="1.0" encoding="UTF-8" standalone="no"?>
<!-- Created with Inkscape (http://www.inkscape.org/) -->

<svg
   xmlns:dc="http://purl.org/dc/elements/1.1/"
   xmlns:cc="http://creativecommons.org/ns#"
   xmlns:rdf="http://www.w3.org/1999/02/22-rdf-syntax-ns#"
   xmlns:svg="http://www.w3.org/2000/svg"
   xmlns="http://www.w3.org/2000/svg"
   xmlns:sodipodi="http://sodipodi.sourceforge.net/DTD/sodipodi-0.dtd"
   xmlns:inkscape="http://www.inkscape.org/namespaces/inkscape"
   width="75mm"
   height="50mm"
   viewBox="0 0 75 50"
   version="1.1"
   id="svg8"
   inkscape:version="0.92.3 (2405546, 2018-03-11)"
   sodipodi:docname="ader_wb.svg">
  <defs
     id="defs2" />
  <sodipodi:namedview
     id="base"
     pagecolor="#ffffff"
     bordercolor="#666666"
     borderopacity="1.0"
     inkscape:pageopacity="0.0"
     inkscape:pageshadow="2"
     inkscape:zoom="2"
     inkscape:cx="-64.181493"
     inkscape:cy="91.408873"
     inkscape:document-units="mm"
     inkscape:current-layer="layer1"
     showgrid="false"
     inkscape:window-width="1920"
     inkscape:window-height="1017"
     inkscape:window-x="-8"
     inkscape:window-y="-8"
     inkscape:window-maximized="1" />
  <metadata
     id="metadata5">
    <rdf:RDF>
      <cc:Work
         rdf:about="">
        <dc:format>image/svg+xml</dc:format>
        <dc:type
           rdf:resource="http://purl.org/dc/dcmitype/StillImage" />
        <dc:title />
      </cc:Work>
    </rdf:RDF>
  </metadata>
  <g
     inkscape:label="Calque 1"
     inkscape:groupmode="layer"
     id="layer1"
     transform="translate(0,-247)">
    <path
       style="fill:#000000;stroke-width:0.15505786"
       d="m 65.993761,280.73149 c -0.559431,-0.49108 -2.077935,-1.02 -2.966998,-1.03341 -1.938743,-0.0292 -3.710274,0.7628 -5.404308,2.4164 -1.818276,1.77498 -3.035488,4.26825 -3.353007,6.86859 l -0.171435,1.40393 -0.756741,-1.36516 c -1.004444,-1.81204 -1.702371,-2.43912 -3.014433,-2.70836 -2.178916,-0.44709 -4.237453,1.30774 -5.641238,4.80897 -0.652408,1.62719 -1.03623,4.08435 -0.869383,5.56554 0.09362,0.83123 0.08667,0.8199 -0.467574,-0.7615 -0.143179,-0.40851 -0.592847,-1.41481 -0.999272,-2.23619 -2.199667,-4.44567 -5.067046,-5.868 -8.046751,-3.99153 -1.422881,0.89607 -3.153098,3.23545 -3.949026,5.33937 -0.298392,0.78875 -0.347702,0.85559 -0.425701,0.57701 -0.302746,-1.08131 -1.008326,-2.66006 -1.88231,-4.2117 -0.841132,-1.49377 -1.132192,-1.89864 -1.77621,-2.47303 -1.426434,-1.27213 -2.864046,-1.73042 -4.478541,-1.42766 -0.893629,0.16724 -2.918391,1.1385 -3.472675,1.6652 l -0.398759,0.37891 0.135053,-0.50584 c 0.236244,-0.88484 0.276441,-1.91852 0.120403,-3.09606 -0.557389,-4.20648 -2.793693,-6.70255 -5.469267,-6.10459 -0.628454,0.14045 -1.845845,0.78936 -2.7907388,1.48758 l -0.5806015,0.42901 0.1269843,-1.27027 c 0.594165,-5.94385 -0.9358595,-10.35207 -4.4436237,-12.80271 -1.1459649,-0.8006 -3.1422216,-1.52832 -4.24032507,-1.54576 -0.44022679,-0.007 -0.76667976,-0.0459 -0.72544914,-0.0861 0.1464143,-0.14335 3.08977491,-0.87231 4.23102771,-1.04781 3.0068351,-0.46234 6.9439892,-0.12505 9.7882002,0.83852 3.15003,1.0672 6.794503,3.23945 9.987205,5.95281 0.830011,0.7054 2.819978,2.59377 4.422152,4.19641 2.934644,2.93545 4.270558,4.06668 5.006569,4.2394 1.171985,0.27506 2.772877,-0.87467 3.466763,-2.48977 0.487579,-1.13491 0.833205,-3.44785 0.767375,-5.13527 l -0.04896,-1.25464 0.463221,0.83458 c 1.70569,3.0731 4.584054,1.61179 4.772011,-2.42272 l 0.03842,-0.82483 0.176461,0.49231 c 0.44814,1.25036 1.964592,4.82948 2.290474,5.40596 0.802413,1.41972 1.822703,1.53962 3.031295,0.35652 0.961888,-0.94165 1.816079,-2.25824 3.833999,-5.90962 5.685116,-10.28713 7.809964,-13.48138 11.114793,-16.70869 3.479055,-3.39748 6.805724,-5.03283 10.615778,-5.21864 l 1.22055,-0.0596 -0.972776,1.09276 c -1.973723,2.21717 -3.158628,4.59694 -3.939336,7.91183 -0.804821,3.41721 -0.543596,7.34811 0.627152,9.43759 0.231513,0.41349 0.390503,0.78156 0.353083,0.81823 -0.0374,0.0367 -0.508254,0.17362 -1.046323,0.30419 -0.918118,0.22298 -1.048365,0.30653 -2.117195,1.35851 -1.35872,1.33746 -1.884947,2.28788 -2.442526,4.41268 -0.664155,2.53095 -0.575795,5.10664 0.251051,7.31786 0.394918,1.05611 0.39675,1.08397 0.05135,0.7808 z"
       id="path21"
       inkscape:connector-curvature="0" />
  </g>
</svg>
