/* XPM */
static char * adrExport_xpm[] = {
"64 64 558 2",
"  	c None",
". 	c #555753",
"+ 	c #B0B1AE",
"@ 	c #CCCCCA",
"# 	c #CDCDCB",
"$ 	c #CECECC",
"% 	c #CFCFCD",
"& 	c #D0D0CE",
"* 	c #D0D1CF",
"= 	c #D1D2D0",
"- 	c #D2D3D1",
"; 	c #D3D4D2",
"> 	c #D4D4D3",
", 	c #D5D5D4",
"' 	c #D6D6D5",
") 	c #D7D7D6",
"! 	c #D7D8D7",
"~ 	c #D8D8D8",
"{ 	c #D8D8D7",
"] 	c #CFD0CD",
"^ 	c #CBCDCA",
"/ 	c #C8CAC6",
"( 	c #C5C7C3",
"_ 	c #C2C4C0",
": 	c #BEC1BC",
"< 	c #ACAFAA",
"[ 	c #626460",
"} 	c #6B6D68",
"| 	c #61635F",
"1 	c #EEEEEC",
"2 	c #EFEFED",
"3 	c #F0F0EE",
"4 	c #F1F1F0",
"5 	c #F2F2F1",
"6 	c #F3F3F2",
"7 	c #F5F5F3",
"8 	c #F6F6F5",
"9 	c #F7F7F6",
"0 	c #F8F8F7",
"a 	c #F9F9F8",
"b 	c #FAFAFA",
"c 	c #FBFBFB",
"d 	c #FCFCFC",
"e 	c #FDFDFD",
"f 	c #FAFBFA",
"g 	c #F6F7F6",
"h 	c #F3F4F1",
"i 	c #EFF0ED",
"j 	c #EBEDE9",
"k 	c #E7E9E5",
"l 	c #E3E5E0",
"m 	c #DFE2DC",
"n 	c #848782",
"o 	c #8A8C88",
"p 	c #969892",
"q 	c #787B75",
"r 	c #595B57",
"s 	c #EFEFEE",
"t 	c #F1F1EF",
"u 	c #F2F2F0",
"v 	c #F3F3F1",
"w 	c #F4F4F3",
"x 	c #F5F5F4",
"y 	c #F8F8F8",
"z 	c #F9F9F9",
"A 	c #FBFBFA",
"B 	c #FCFCFB",
"C 	c #FEFEFE",
"D 	c #F5F6F4",
"E 	c #F1F2F0",
"F 	c #EDEFEB",
"G 	c #E9EBE7",
"H 	c #E5E8E3",
"I 	c #929591",
"J 	c #999B97",
"K 	c #BFC1BC",
"L 	c #A0A29D",
"M 	c #838580",
"N 	c #FAFAF9",
"O 	c #FDFEFD",
"P 	c #F7F8F6",
"Q 	c #F3F4F2",
"R 	c #EFF1EE",
"S 	c #ECEDEA",
"T 	c #9D9E9B",
"U 	c #959793",
"V 	c #CBCDC9",
"W 	c #BDBFBB",
"X 	c #A9ABA6",
"Y 	c #8A8C87",
"Z 	c #676A65",
"` 	c #F0F0EF",
" .	c #F4F4F2",
"..	c #FDFDFC",
"+.	c #F9FAF9",
"@.	c #F5F6F5",
"#.	c #F2F3F0",
"$.	c #A3A5A2",
"%.	c #939591",
"&.	c #CDCFCA",
"*.	c #B7B9B3",
"=.	c #B5B7B2",
"-.	c #8E908B",
";.	c #6A6C67",
">.	c #F6F6F6",
",.	c #FBFCFB",
"'.	c #A5A6A4",
").	c #949692",
"!.	c #CDCFCB",
"~.	c #B9BCB5",
"{.	c #B4B7B0",
"].	c #ADAFAA",
"^.	c #A4A7A2",
"/.	c #8E918B",
"(.	c #686A65",
"_.	c #FEFEFD",
":.	c #A4A4A3",
"<.	c #979995",
"[.	c #A9ACA6",
"}.	c #8B8D88",
"|.	c #61635E",
"1.	c #EEEEED",
"2.	c #F7F7F7",
"3.	c #A0A1A0",
"4.	c #9A9C98",
"5.	c #CFD1CD",
"6.	c #CACCC7",
"7.	c #C8CAC5",
"8.	c #C6C8C2",
"9.	c #AFB1AB",
"0.	c #9C9F99",
"a.	c #848681",
"b.	c #565854",
"c.	c #9A9B99",
"d.	c #838581",
"e.	c #A8AAA6",
"f.	c #A3A5A0",
"g.	c #9C9F9A",
"h.	c #959792",
"i.	c #90938D",
"j.	c #878984",
"k.	c #888A85",
"l.	c #6F716C",
"m.	c #A2A3A2",
"n.	c #777876",
"o.	c #757774",
"p.	c #80817F",
"q.	c #888987",
"r.	c #919290",
"s.	c #969794",
"t.	c #949593",
"u.	c #828380",
"v.	c #575955",
"w.	c #F7F8F7",
"x.	c #F4F5F3",
"y.	c #E4E5E2",
"z.	c #8F908D",
"A.	c #E9EAE7",
"B.	c #545652",
"C.	c #F3F4F3",
"D.	c #F4F5F4",
"E.	c #E9E9E7",
"F.	c #E8E8E6",
"G.	c #E9E9E8",
"H.	c #939493",
"I.	c #B7B7B5",
"J.	c #C6C6C4",
"K.	c #D1D1CF",
"L.	c #595C5C",
"M.	c #4A4F4E",
"N.	c #ACACAB",
"O.	c #D7D7D5",
"P.	c #5E6162",
"Q.	c #B1CE97",
"R.	c #505E4C",
"S.	c #9E9F9E",
"T.	c #D8D8D6",
"U.	c #ECECEA",
"V.	c #666969",
"W.	c #C4E6A4",
"X.	c #BCDE9B",
"Y.	c #617356",
"Z.	c #A4A5A4",
"`.	c #ECEDEB",
" +	c #EAEAE8",
".+	c #646667",
"++	c #C1E49F",
"@+	c #ADE17C",
"#+	c #C1E59E",
"$+	c #758C64",
"%+	c #8A8C8B",
"&+	c #DDDDDB",
"*+	c #585B5D",
"=+	c #BFE39D",
"-+	c #9DDB60",
";+	c #A7DE72",
">+	c #C0E79C",
",+	c #89A372",
"'+	c #707272",
")+	c #4F5354",
"!+	c #BEE39A",
"~+	c #99D85C",
"{+	c #9BD95E",
"]+	c #A0DB69",
"^+	c #BDE696",
"/+	c #9BB980",
"(+	c #4F5451",
"_+	c #B1B2B0",
":+	c #E4E4E2",
"<+	c #CDCECB",
"[+	c #4B4F51",
"}+	c #BCE298",
"|+	c #96D657",
"1+	c #97D759",
"2+	c #98D75A",
"3+	c #9BD85F",
"4+	c #B6E38D",
"5+	c #A8CA89",
"6+	c #4A5549",
"7+	c #A4A5A3",
"8+	c #2E3436",
"9+	c #2E3336",
"0+	c #2D3336",
"a+	c #2F3436",
"b+	c #353A3B",
"c+	c #5C5E5F",
"d+	c #696B6B",
"e+	c #696C6C",
"f+	c #5E6161",
"g+	c #3A4040",
"h+	c #BAE295",
"i+	c #93D453",
"j+	c #94D555",
"k+	c #95D556",
"l+	c #95D557",
"m+	c #96D659",
"n+	c #AEDF82",
"o+	c #B1D58F",
"p+	c #54664C",
"q+	c #9FA09F",
"r+	c #E1E1DF",
"s+	c #E2E2E0",
"t+	c #EBEBE9",
"u+	c #8AB366",
"v+	c #9CCE6C",
"w+	c #9DCF6D",
"x+	c #9DCF6E",
"y+	c #9FD070",
"z+	c #A9D480",
"A+	c #B1D88C",
"B+	c #B2D88D",
"C+	c #B3D98F",
"D+	c #B4DA91",
"E+	c #B6DC92",
"F+	c #B9E290",
"G+	c #8FD24E",
"H+	c #90D250",
"I+	c #91D351",
"J+	c #92D352",
"K+	c #92D353",
"L+	c #A5DA74",
"M+	c #B6DC91",
"N+	c #667C57",
"O+	c #969796",
"P+	c #91BD6B",
"Q+	c #7AC83A",
"R+	c #6DC31F",
"S+	c #6CC31E",
"T+	c #6CC31C",
"U+	c #6BC21A",
"V+	c #6BC219",
"W+	c #6AC217",
"X+	c #73C529",
"Y+	c #85CD41",
"Z+	c #89CF45",
"`+	c #8ACF47",
" @	c #8ACF48",
".@	c #8BD049",
"+@	c #8CD04A",
"@@	c #8DD04C",
"#@	c #8ED04D",
"$@	c #8ED14D",
"%@	c #8FD14E",
"&@	c #8FD14F",
"*@	c #9CD666",
"=@	c #B6DF8F",
"-@	c #799463",
";@	c #7C7E7D",
">@	c #75C534",
",@	c #67BF10",
"'@	c #69C017",
")@	c #7FC938",
"!@	c #86CC41",
"~@	c #87CD43",
"{@	c #88CD44",
"]@	c #88CD45",
"^@	c #89CE46",
"/@	c #8ACE47",
"(@	c #8ACE48",
"_@	c #8BCE49",
":@	c #8BCF49",
"<@	c #93D158",
"[@	c #B3DF89",
"}@	c #8AAA6E",
"|@	c #606363",
"1@	c #C1C1C0",
"2@	c #E3E3E1",
"3@	c #91BC6B",
"4@	c #74C333",
"5@	c #65BE10",
"6@	c #67BE13",
"7@	c #7BC734",
"8@	c #83CA3E",
"9@	c #84CB40",
"0@	c #85CB41",
"a@	c #85CB42",
"b@	c #86CC43",
"c@	c #87CC44",
"d@	c #87CC45",
"e@	c #8BCD4C",
"f@	c #ACDB80",
"g@	c #98BC77",
"h@	c #49524A",
"i@	c #ABABAA",
"j@	c #DFDFDD",
"k@	c #91BB6A",
"l@	c #73C133",
"m@	c #64BC0F",
"n@	c #66BC13",
"o@	c #7BC634",
"p@	c #81C83B",
"q@	c #81C83C",
"r@	c #82C93D",
"s@	c #82C93E",
"t@	c #83C93F",
"u@	c #83CA3F",
"v@	c #84CA40",
"w@	c #84CA41",
"x@	c #A3D674",
"y@	c #A2C97D",
"z@	c #4B5B45",
"A@	c #9B9C9B",
"B@	c #90BB6A",
"C@	c #72C032",
"D@	c #63BA0F",
"E@	c #66BC16",
"F@	c #7BC534",
"G@	c #7EC637",
"H@	c #7EC638",
"I@	c #7FC639",
"J@	c #7FC73A",
"K@	c #7FC73B",
"L@	c #80C73B",
"M@	c #7FC739",
"N@	c #98D165",
"O@	c #A7D17F",
"P@	c #586E4B",
"Q@	c #999A9A",
"R@	c #E7E7E5",
"S@	c #90BA6A",
"T@	c #71BE32",
"U@	c #62B90E",
"V@	c #6ABC1E",
"W@	c #7AC332",
"X@	c #7AC333",
"Y@	c #7BC434",
"Z@	c #7BC435",
"`@	c #7CC436",
" #	c #7CC435",
".#	c #7AC334",
"+#	c #8CCB55",
"@#	c #A9D57E",
"##	c #698454",
"$#	c #888A89",
"%#	c #8FB969",
"&#	c #70BD31",
"*#	c #61B70E",
"=#	c #70BE26",
"-#	c #76C12E",
";#	c #77C12F",
">#	c #77C130",
",#	c #78C130",
"'#	c #78C231",
")#	c #81C545",
"!#	c #A6D579",
"~#	c #799A5E",
"{#	c #6E7070",
"]#	c #E0E0DE",
"^#	c #6FBB31",
"/#	c #60B60E",
"(#	c #63B713",
"_#	c #72BE29",
":#	c #73BE2A",
"<#	c #73BE2B",
"[#	c #74BE2B",
"}#	c #74BF2B",
"|#	c #74BF2C",
"1#	c #71BE28",
"2#	c #90CB5D",
"3#	c #A3D376",
"4#	c #4D6B3E",
"5#	c #868786",
"6#	c #D2D2D0",
"7#	c #8EB869",
"8#	c #6EBA31",
"9#	c #5FB40D",
"0#	c #69B81D",
"a#	c #6FBB25",
"b#	c #6FBB26",
"c#	c #6FBC26",
"d#	c #70BC26",
"e#	c #70BC27",
"f#	c #92CB60",
"g#	c #9CCD70",
"h#	c #50733D",
"i#	c #767878",
"j#	c #C2C2C0",
"k#	c #6DB830",
"l#	c #5EB20D",
"m#	c #5FB310",
"n#	c #6AB820",
"o#	c #6BB920",
"p#	c #6BB921",
"q#	c #6CB921",
"r#	c #6EBA28",
"s#	c #97CD67",
"t#	c #93C367",
"u#	c #425F37",
"v#	c #8A8B8B",
"w#	c #C5C5C3",
"x#	c #8EB769",
"y#	c #6CB630",
"z#	c #5DB10C",
"A#	c #63B316",
"B#	c #67B51B",
"C#	c #67B61C",
"D#	c #6FB92F",
"E#	c #9ACE6B",
"F#	c #86B75D",
"G#	c #3E513C",
"H#	c #BBBCBA",
"I#	c #8DB669",
"J#	c #6BB52F",
"K#	c #5CAF0C",
"L#	c #5DAF0D",
"M#	c #62B216",
"N#	c #63B217",
"O#	c #63B317",
"P#	c #72B937",
"Q#	c #9BCE6C",
"R#	c #78A752",
"S#	c #4B534D",
"T#	c #6AB32F",
"U#	c #5BAD0B",
"V#	c #5DAE0E",
"W#	c #5FAF11",
"X#	c #5FAF12",
"Y#	c #5FB012",
"Z#	c #77BA40",
"`#	c #9ACD6B",
" $	c #689448",
".$	c #636565",
"+$	c #DBDBD9",
"@$	c #8CB569",
"#$	c #69B22E",
"$$	c #5AAC0B",
"%$	c #5AAC0C",
"&$	c #5BAC0D",
"*$	c #7DBC49",
"=$	c #96C867",
"-$	c #597F40",
";$	c #7A7C7C",
">$	c #8CB468",
",$	c #76B742",
"'$	c #6DB336",
")$	c #6DB335",
"!$	c #6CB335",
"~$	c #6CB334",
"{$	c #6CB234",
"]$	c #6BB232",
"^$	c #58AA0A",
"/$	c #59AA0A",
"($	c #5AAB0F",
"_$	c #84BF53",
":$	c #90C262",
"<$	c #4A6A3A",
"[$	c #939494",
"}$	c #7CA35C",
"|$	c #89B85F",
"1$	c #8AB85F",
"2$	c #8AB95F",
"3$	c #8BB960",
"4$	c #8CBB5F",
"5$	c #97C968",
"6$	c #57A809",
"7$	c #58A90A",
"8$	c #5CAA19",
"9$	c #8BC25C",
"0$	c #88B95C",
"a$	c #3E5737",
"b$	c #ABACAB",
"c$	c #EDEDEB",
"d$	c #303537",
"e$	c #383C3D",
"f$	c #666868",
"g$	c #747675",
"h$	c #747575",
"i$	c #737575",
"j$	c #363D3D",
"k$	c #96C768",
"l$	c #56A708",
"m$	c #56A709",
"n$	c #61AB25",
"o$	c #91C461",
"p$	c #7DAC55",
"q$	c #404F40",
"r$	c #414648",
"s$	c #95C568",
"t$	c #55A508",
"u$	c #55A509",
"v$	c #67AD31",
"w$	c #93C665",
"x$	c #709D4C",
"y$	c #505653",
"z$	c #414647",
"A$	c #94C468",
"B$	c #54A307",
"C$	c #54A308",
"D$	c #6FB03D",
"E$	c #93C566",
"F$	c #628A45",
"G$	c #686B6B",
"H$	c #DEDEDC",
"I$	c #404547",
"J$	c #94C368",
"K$	c #53A207",
"L$	c #78B448",
"M$	c #91C164",
"N$	c #53763E",
"O$	c #818282",
"P$	c #E6E6E4",
"Q$	c #80B852",
"R$	c #8BBB60",
"S$	c #466239",
"T$	c #9A9B9A",
"U$	c #C1C1BF",
"V$	c #3E4345",
"W$	c #97C36B",
"X$	c #83B15A",
"Y$	c #3B5136",
"Z$	c #9C9D9C",
"`$	c #363B3D",
" %	c #77A254",
".%	c #344236",
"+%	c #4A4D4A",
"@%	c #2D3335",
"#%	c #2D3534",
"$%	c #262B2D",
"                                                                                                                                ",
"                                                                                                                                ",
"                                                                                                                                ",
"                    . . . . . . . . . . . . . . . . . . . . . . . . . . . . . . . . . . .                                       ",
"                    . + @ @ @ @ @ @ # $ % & * = - ; > , ' ) ! ~ { , - ] ^ / ( _ : < [ } | . .                                   ",
"                    . # 1 1 1 1 1 1 1 2 3 4 5 6 7 8 9 0 a b c d e e f g h i j k l m n o p q r .                                 ",
"                    . # 1 1 1 1 1 1 1 1 1 s t u v w x 8 9 y z A B e C d a D E F G H I J K L M | .                               ",
"                    . # 1 1 1 1 1 1 1 1 1 1 2 3 t 5 6 w x 9 0 a N c d e O c P Q R S T U V W X Y Z .                             ",
"                    . # 1 1 1 1 1 1 1 1 1 1 1 1 2 ` 4 v  .x 8 9 0 z b B ..C e +.@.#.$.%.&.*.=.X -.;..                           ",
"                    . # 1 1 1 1 1 1 1 1 1 1 1 1 1 2 3 t u 6 w x >.0 a N A d e C ,.0 '.).!.~.{.].^./.(..                         ",
"                    . # 1 1 1 1 1 1 1 1 1 1 1 1 1 1 1 2 3 4 5  .7 8 9 0 a b c d _.e :.<.&.~.~.{.[.L }.|..                       ",
"                    . # 1 1 1 1 1 1 1 1 1 1 1 1 1 1 1 1 1.3 t u 6 w x 8 2.y N A d e 3.4.5.6.7.8.K 9.0.a.b.                      ",
"                    . # 1 1 1 1 1 1 1 1 1 1 1 1 1 1 1 1 1 1 2 3 4 5 6 w 8 9 0 a b c c.d.e.f.g.h.i.}.j.k.l..                     ",
"                    . # 1 1 1 1 1 1 1 1 1 1 1 1 1 1 1 1 1 1 1 1 s ` u v w x 8 9 y z m.n.o.p.q.r.s.t.u.v.r .                     ",
"                    . # 1 1 1 1 1 1 1 1 1 1 1 1 1 1 1 1 1 1 1 1 1 2 3 t 5 6 w x 9 0 a b B d e _.c w.x.y.z..                     ",
"                    . # 1 1 1 1 1 1 1 1 1 1 1 1 1 1 1 1 1 1 1 1 1 1 1 2 ` 4 v  .x 8 9 0 z b B ..C e N 8 A.B.                    ",
"                    . # 1 1 1 1 1 1 1 1 1 1 1 1 1 1 1 1 1 1 1 1 1 1 1 1 2 3 t u 6 w x 8 2.a N A d e C B C.B.                    ",
"                    . # 1 1 1 1 1 1 1 1 1 1 1 1 1 1 1 1 1 1 1 1 1 1 1 1 1 1 2 3 4 5 6 7 8 9 0 a b c d e y B.                    ",
"                    . # 1 1 1 1 1 1 1 1 1 1 1 1 1 1 1 1 1 1 1 1 1 1 1 1 1 1 1 1.s t u v w x 8 9 y N A B 0 B.                    ",
"                    . # 1 1 1 1 1 1 1 1 1 1 1 1 1 1 1 1 1 1 1 1 1 1 1 1 1 1 1 1 1 2 3 t 5 6 w x 9 0 a N >.B.                    ",
"                    . # 1 1 1 1 1 1 1 1 1 1 1 1 1 1 1 1 1 1 1 1 1 1 1 1 1 1 1 1 1 1 1 2 ` 4 v  .x 8 9 0 D.B.                    ",
"                    . # 1 1 1 1 1 1 1 1 1 1 1 1 1 1 1 1 1 1 1 1 1 1 1 1 1 1 1 1 1 1 1 1 2 3 t u 6 w x 8 6 B.                    ",
"                    . # 1 1 E.F.F.F.F.F.F.F.F.F.F.F.F.F.F.F.F.F.F.F.F.F.F.F.F.F.F.F.F.F.G.1 2 3 4 5  .x 4 B.                    ",
"                    . # 1 1 % H.I.J.J.J.J.J.J.J.J.J.J.J.J.J.J.J.J.J.J.J.J.J.J.J.J.J.J.J.K.1 1 1.3 t u 6 s B.                    ",
"                    . # 1 1 % L.M.N.J.J.J.J.J.J.J.J.J.J.J.J.J.J.J.J.J.J.J.J.J.J.J.J.J.J.K.1 1 1 1 2 3 4 1 B.                    ",
"                    . # 1 1 O.P.Q.R.S.K.& & & & & & & & & & & & & & & & & & & & & & & & T.1 1 1 1 1 1 s U.B.                    ",
"                    . # 1 1 2 V.W.X.Y.Z.`.1 1 1 1 1 1 1 1 1 1 1 1 1 1 1 1 1 1 1 1 1 1 1 1 1 1 1 1 1 1 1  +B.                    ",
"                    . # 1 1 2 .+++@+#+$+%+F.1 1 1 1 1 1 1 1 1 1 1 1 1 1 1 1 1 1 1 1 1 1 1 1 1 1 1 1 1 1  +B.                    ",
"                    . # 1 1 &+*+=+-+;+>+,+'+$ T.T.T.T.T.T.T.T.T.T.T.T.T.T.T.T.T.T.T.T.F.1 1 1 1 1 1 1 1  +B.                    ",
"                    . # 1 1 & )+!+~+{+]+^+/+(+_+J.J.J.J.J.J.J.J.J.J.J.J.J.J.J.J.J.J.J.:+1 1 1 1 1 1 1 1  +B.                    ",
"                    . <+1 1 & [+}+|+1+2+3+4+5+6+7+J.J.J.J.J.J.J.J.J.J.J.J.J.J.J.J.J.J.:+1 1 1 1 1 1 1 1  +B.                    ",
"    8+9+0+0+0+0+0+a+b+c+d+e+f+g+h+i+j+k+l+m+n+o+p+q+r+s+s+s+s+s+s+s+s+s+s+s+s+s+s+s+s+t+1 1 1 1 1 1 1 1  +B.                    ",
"    8+u+v+w+x+x+x+y+z+A+B+C+D+E+F+G+H+I+J+K+K+L+M+N+O+t+1 1 1 1 1 1 1 1 1 1 1 1 1 1 1 1 1 1 1 1 1 1 1 1  +B.                    ",
"    8+P+Q+R+S+T+U+V+W+X+Y+Z+`+ @.@+@@@#@$@%@&@&@*@=@-@;@:+1 1 1 1 1 1 1 1 1 1 1 1 1 1 1 1 1 1 1 1 1 1 1  +B.                    ",
"    8+P+>@,@,@,@,@,@,@,@'@)@!@~@{@]@^@/@(@_@_@:@:@<@[@}@|@1@& & & & & & & & & & 2@1 1 1 1 1 1 1 1 1 1 1  +B.                    ",
"    8+3@4@5@5@5@5@5@5@5@5@6@7@8@9@0@a@b@c@c@d@d@d@d@e@f@g@h@i@J.J.J.J.J.J.J.J.J.j@1 1 1 1 1 1 1 1 1 1 1  +B.                    ",
"    8+k@l@m@m@m@m@m@m@m@m@m@n@o@p@q@r@s@t@t@u@v@v@v@t@w@x@y@z@A@J.J.J.J.J.J.J.J.j@1 1 1 1 1 1 1 1 1 1 1  +B.                    ",
"    8+B@C@D@D@D@D@D@D@D@D@D@D@E@F@G@H@I@J@J@K@L@L@K@J@J@M@N@O@P@Q@R@F.F.F.F.F.F.U.1 1 1 1 1 1 1 1 1 1 1  +B.                    ",
"    8+S@T@U@U@U@U@U@U@U@U@U@U@U@V@W@X@Y@Z@Z@`@`@`@`@ #Z@Y@.#+#@###$#F.1 1 1 1 1 1 1 1 1 1 1 1 1 1 1 1 1  +B.                    ",
"    8+%#&#*#*#*#*#*#*#*#*#*#*#*#*#=#-#;#>#,#,#'#'#'#,#>#;#;#-#)#!#~#{#]#1 1 1 1 1 1 1 1 1 1 1 1 1 1 1 1  +B.                    ",
"    8+%#^#/#/#/#/#/#/#/#/#/#/#/#/#(#_#:#<#[#}#|#|#|#}#<#:#:#_#1#2#3#4#5#6#6#6#6#6#6#6#6#O.1 1 1 1 1 1 1  +B.                    ",
"    8+7#8#9#9#9#9#9#9#9#9#9#9#9#9#9#0#a#b#c#d#e#e#e#d#b#a#a#b#f#g#h#i#j#J.J.J.J.J.J.J.J.$ 1 1 1 1 1 1 1  +B.                    ",
"    8+7#k#l#l#l#l#l#l#l#l#l#l#l#l#l#m#n#o#p#q#q#q#q#p#p#o#r#s#t#u#v#w#J.J.J.J.J.J.J.J.J.$ 1 1 1 1 1 1 1  +B.                    ",
"    8+x#y#z#z#z#z#z#z#z#z#z#z#z#z#z#z#A#B#C#C#C#C#C#C#B#D#E#F#G#H#R@R@R@R@R@R@R@R@R@R@R@F.1 1 1 1 1 1 1  +B.                    ",
"    8+I#J#K#K#K#K#K#K#K#K#K#K#K#K#K#K#L#M#N#O#O#O#O#O#P#Q#R#S#$ 1 1 1 1 1 1 1 1 1 1 1 1 1 1 1 1 1 1 1 1  +B.                    ",
"    8+I#T#U#U#U#U#U#U#U#U#U#U#U#U#U#U#U#V#W#X#Y#Y#Y#Z#`# $.$+$1 1 1 1 1 1 1 1 1 1 1 1 1 1 1 1 1 1 1 1 1  +B.                    ",
"    8+@$#$$$$$$$$$$$$$$$$$$$$$$$$$$$$$$$$$%$&$&$&$*$=$-$;$:+1 1 1 1 1 1 1 1 1 1 1 1 1 1 1 1 1 1 1 1 1 1  +B.                    ",
"    8+>$,$'$)$)$)$!$!$!$~$~${${$]$^$/$/$/$/$/$($_$:$<$[$ +1 1 1 1 1 1 1 1 1 1 1 1 1 1 1 1 1 1 1 1 1 1 1  +B.                    ",
"    8+}$|$1$1$1$1$1$1$1$1$2$3$4$5$6$7$7$7$7$8$9$0$a$b$c$1 1 1 1 1 1 1 1 1 1 1 1 1 1 1 1 1 1 1 1 1 1 1 1  +B.                    ",
"      8+8+8+8+8+8+d$e$f$g$h$i$j$k$l$m$m$m$n$o$p$q$1@1 1 1 1 1 1 1 1 1 1 1 1 1 1 1 1 1 1 1 1 1 1 1 1 1 1  +B.                    ",
"                    . # 1 1 2 r$s$t$u$u$v$w$x$y$= 1 1 1 1 1 1 1 1 1 1 1 1 1 1 1 1 1 1 1 1 1 1 1 1 1 1 1  +B.                    ",
"                    . # 1 1 2 z$A$B$C$D$E$F$G$H$1 1 1 1 1 1 1 1 1 1 1 1 1 1 1 1 1 1 1 1 1 1 1 1 1 1 1 1  +B.                    ",
"                    . # 1 1 2 I$J$K$L$M$N$O$P$1 1 1 1 1 1 1 1 1 1 1 1 1 1 1 1 1 1 1 1 1 1 1 1 1 1 1 1 1  +B.                    ",
"                    . # 1 1 2 I$t#Q$R$S$T$t+1 1 1 1 1 1 1 1 1 1 1 1 1 1 1 1 1 1 1 1 1 1 1 1 1 1 1 1 1 1  +B.                    ",
"                    . U$]#]#r+V$W$X$Y$Z$]#]#]#]#]#]#]#]#]#]#]#]#]#]#]#]#]#]#]#]#]#]#]#]#]#]#]#]#]#]#]#]#+$B.                    ",
"                    B.. . . . `$ %.%+%. . . . . . . . . . . . . . . . . . . . . . . . . . . . . . . . . . .                     ",
"                              @%#%                                                                                              ",
"                              $%                                                                                                ",
"                                                                                                                                ",
"                                                                                                                                ",
"                                                                                                                                ",
"                                                                                                                                ",
"                                                                                                                                ",
"                                                                                                                                "};
