<?xml version="1.0" encoding="UTF-8" standalone="no"?>
<!-- Created with Inkscape (http://www.inkscape.org/) -->

<svg
   width="100mm"
   height="100mm"
   viewBox="0 0 100 100"
   version="1.1"
   id="svg1"
   xml:space="preserve"
   inkscape:version="1.4.2 (f4327f4, 2025-05-13)"
   sodipodi:docname="adrFoil.svg"
   xmlns:inkscape="http://www.inkscape.org/namespaces/inkscape"
   xmlns:sodipodi="http://sodipodi.sourceforge.net/DTD/sodipodi-0.dtd"
   xmlns="http://www.w3.org/2000/svg"
   xmlns:svg="http://www.w3.org/2000/svg"><sodipodi:namedview
     id="namedview1"
     pagecolor="#ffffff"
     bordercolor="#000000"
     borderopacity="0.25"
     inkscape:showpageshadow="2"
     inkscape:pageopacity="0.0"
     inkscape:pagecheckerboard="0"
     inkscape:deskcolor="#d1d1d1"
     inkscape:document-units="mm"
     inkscape:zoom="0.69753788"
     inkscape:cx="397.11105"
     inkscape:cy="561.25984"
     inkscape:window-width="1920"
     inkscape:window-height="1001"
     inkscape:window-x="-9"
     inkscape:window-y="-9"
     inkscape:window-maximized="1"
     inkscape:current-layer="layer1" /><defs
     id="defs1" /><g
     inkscape:label="Calque 1"
     inkscape:groupmode="layer"
     id="layer1"><path
       style="fill:#000000;stroke-width:0.917749"
       d="M 12.502213,52.759461 C 10.356273,52.709472 7.5765534,52.547266 6.8044298,52.42688 5.3195804,52.195368 4.0464836,51.710157 3.3091236,51.094705 3.1431644,50.956191 3.0073811,50.793027 3.0073811,50.732121 c 0,-0.06091 -0.067448,-0.129427 -0.1498962,-0.152266 C 2.7750402,50.557062 2.5902112,50.357632 2.4467486,50.13677 1.707031,48.997983 1.6976749,47.650974 2.4188942,46.127011 c 0.4560386,-0.963623 1.4734567,-2.420062 1.6948718,-2.42621 0.05532,-0.0019 0.1005811,-0.05727 0.1005811,-0.123853 0,-0.150265 1.2330766,-1.253801 2.0710042,-1.853432 1.766128,-1.263865 3.7687457,-2.369394 5.7340697,-3.165458 3.429976,-1.389317 8.119422,-2.379085 13.276672,-2.802193 1.748867,-0.143484 7.770661,-0.143302 9.816691,2.88e-4 10.243234,0.718868 19.927387,2.301573 34.31818,5.608695 8.899921,2.045268 17.025551,4.277297 24.340564,6.686098 2.238008,0.736958 2.253015,0.74323 2.253015,0.941549 0,0.14677 -0.07216,0.16009 -0.865003,0.159774 -1.482147,-5.93e-4 -2.906367,-0.129378 -6.618216,-0.598424 -1.084259,-0.137011 -2.49641,-0.306132 -3.138121,-0.37581 -4.409676,-0.478843 -12.7369,-0.724126 -19.178313,-0.564897 -7.462474,0.184471 -9.786165,0.426689 -21.375884,2.228207 -12.470389,1.938404 -14.254435,2.171582 -19.150589,2.503005 -3.863135,0.261495 -9.625961,0.490383 -11.425985,0.45381 -0.464683,-0.0096 -1.261284,-0.02681 -1.770223,-0.03869 z m 5.270436,-0.454021 c 4.408472,-0.139031 8.364919,-0.373837 11.586611,-0.68762 3.09982,-0.301908 5.002296,-0.572443 15.489754,-2.202619 11.589721,-1.801518 13.913412,-2.043735 21.375886,-2.228198 6.441403,-0.159228 14.768636,0.086 19.178313,0.564888 0.641711,0.06972 2.053862,0.238799 3.138121,0.37581 3.184862,0.402461 5.765263,0.657042 5.841463,0.576332 0.05748,-0.06081 -5.536699,-1.80712 -9.10028,-2.840729 -9.767881,-2.833135 -23.999231,-6.085413 -33.875631,-7.741569 -5.270899,-0.883861 -11.04344,-1.570955 -16.294099,-1.939448 -2.04603,-0.14359 -8.067823,-0.143762 -9.816691,-2.78e-4 -5.157249,0.423108 -9.846695,1.412866 -13.276671,2.802193 -3.2082963,1.299529 -6.5807613,3.481194 -7.9126382,5.118715 -2.3936452,2.942958 -2.419001,5.790716 -0.06275,7.047552 1.2590315,0.671579 2.6295106,0.935373 5.5614485,1.070478 1.8472957,0.08514 2.5663347,0.108396 4.6669517,0.151069 0.464684,0.0096 2.03978,-0.02049 3.500214,-0.06656 z"
       id="path1" /></g></svg>
