/* XPM */
static char * adrFrames_xpm[] = {
"36 36 226 2",
"  	c #F0F0F0",
". 	c #FFFFFF",
"+ 	c #DFE0E1",
"@ 	c #ECECEC",
"# 	c #EEEEEE",
"$ 	c #4F565F",
"% 	c #A3A7AB",
"& 	c #E8E8E9",
"* 	c #3B434C",
"= 	c #404851",
"- 	c #E5E6E6",
"; 	c #000000",
"> 	c #E1E2E3",
", 	c #3A4551",
"' 	c #1E2E40",
") 	c #A4A7AB",
"! 	c #DBDBDD",
"~ 	c #384553",
"{ 	c #4A6A8D",
"] 	c #404954",
"^ 	c #B7BABD",
"/ 	c #E5E5E6",
"( 	c #D4D5D7",
"_ 	c #344353",
": 	c #6791BD",
"< 	c #293D53",
"[ 	c #A6A9AD",
"} 	c #313943",
"| 	c #555C64",
"1 	c #CDCFD1",
"2 	c #304052",
"3 	c #6B96C4",
"4 	c #577BA2",
"5 	c #38414C",
"6 	c #E4E5E5",
"7 	c #313D4B",
"8 	c #324A65",
"9 	c #545B64",
"0 	c #C6C8CA",
"a 	c #2C3D51",
"b 	c #6E9AC9",
"c 	c #719ECE",
"d 	c #273B51",
"e 	c #A5A8AC",
"f 	c #DADBDC",
"g 	c #354456",
"h 	c #6C98C6",
"i 	c #3A5470",
"j 	c #565D66",
"k 	c #BFC1C3",
"l 	c #293C52",
"m 	c #709DCD",
"n 	c #729FCF",
"o 	c #597EA6",
"p 	c #3A434D",
"q 	c #EAEAEA",
"r 	c #D1D2D4",
"s 	c #37495D",
"t 	c #6C97C7",
"u 	c #6E9BCB",
"v 	c #3A5571",
"w 	c #596069",
"x 	c #B4B7BA",
"y 	c #2B4158",
"z 	c #729ECE",
"A 	c #466585",
"B 	c #2A3F57",
"C 	c #101B28",
"D 	c #484F58",
"E 	c #525961",
"F 	c #2E425A",
"G 	c #6A96C7",
"H 	c #6592C4",
"I 	c #3B5571",
"J 	c #5B636B",
"K 	c #324963",
"L 	c #273A50",
"M 	c #4A6B90",
"N 	c #587CA3",
"O 	c #6088B2",
"P 	c #6A97C8",
"Q 	c #618EC0",
"R 	c #6B97C9",
"S 	c #E0E1E2",
"T 	c #989CA0",
"U 	c #38526E",
"V 	c #213246",
"W 	c #638DBB",
"X 	c #35609A",
"Y 	c #36619B",
"Z 	c #3E69A1",
"` 	c #4570A7",
" .	c #4C78AE",
"..	c #547FB4",
"+.	c #5985B9",
"@.	c #5F8BBE",
"#.	c #6895C6",
"$.	c #5A616A",
"%.	c #E2E3E4",
"&.	c #898E93",
"*.	c #3F5B79",
"=.	c #1B2A3C",
"-.	c #6893C1",
";.	c #234D89",
">.	c #27518D",
",.	c #305B95",
"'.	c #39649D",
").	c #426DA5",
"!.	c #4B76AD",
"~.	c #5480B5",
"{.	c #5D89BC",
"].	c #6693C5",
"^.	c #6F9CCC",
"/.	c #38516C",
"(.	c #EBEBEB",
"_.	c #7B8086",
":.	c #456384",
"<.	c #709CCB",
"[.	c #1A293B",
"}.	c #6994C3",
"|.	c #204A87",
"1.	c #254F8B",
"2.	c #2E5993",
"3.	c #37629B",
"4.	c #406BA3",
"5.	c #4974AB",
"6.	c #527EB3",
"7.	c #5B87BB",
"8.	c #6491C3",
"9.	c #6D9ACA",
"0.	c #719DCD",
"a.	c #3B5573",
"b.	c #505760",
"c.	c #6D737A",
"d.	c #4C6C8F",
"e.	c #1E3045",
"f.	c #6692C1",
"g.	c #28528E",
"h.	c #416CA4",
"i.	c #4A75AB",
"j.	c #517DB2",
"k.	c #628FC1",
"l.	c #6C99CA",
"m.	c #6D99C8",
"n.	c #39526C",
"o.	c #626870",
"p.	c #E7E7E8",
"q.	c #5E656D",
"r.	c #527499",
"s.	c #6790BC",
"t.	c #203349",
"u.	c #6189B3",
"v.	c #658DB9",
"w.	c #5E8ABD",
"x.	c #5783B7",
"y.	c #6591C4",
"z.	c #6892C0",
"A.	c #354B64",
"B.	c #757A80",
"C.	c #676D74",
"D.	c #476586",
"E.	c #6993C0",
"F.	c #25384D",
"G.	c #1E2E41",
"H.	c #152232",
"I.	c #212A35",
"J.	c #353E47",
"K.	c #1F2833",
"L.	c #4D7097",
"M.	c #5B87BA",
"N.	c #648DB9",
"O.	c #304359",
"P.	c #878C92",
"Q.	c #BDBFC2",
"R.	c #2B3B4E",
"S.	c #6A94C2",
"T.	c #888D92",
"U.	c #6E747A",
"V.	c #52769E",
"W.	c #6793C5",
"X.	c #5F87B3",
"Y.	c #2D3D4F",
"Z.	c #9A9DA2",
"`.	c #5C636B",
" +	c #49688A",
".+	c #3A536F",
"++	c #969A9E",
"@+	c #5F666D",
"#+	c #597FA9",
"$+	c #5B81AB",
"%+	c #2D3B4A",
"&+	c #ADB0B3",
"*+	c #BCBEC1",
"=+	c #2B3A4C",
"-+	c #6B96C3",
";+	c #354C66",
">+	c #A2A6AA",
",+	c #3A5676",
"'+	c #313D4C",
")+	c #BEC0C3",
"!+	c #EDEDED",
"~+	c #596068",
"{+	c #4A698C",
"]+	c #31465D",
"^+	c #AFB1B5",
"/+	c #343D47",
"(+	c #CBCDCF",
"_+	c #273748",
":+	c #6D98C7",
"<+	c #2C3F54",
"[+	c #BBBDC0",
"}+	c #A1A5A9",
"|+	c #D8D9DA",
"1+	c #595F67",
"2+	c #4A6A8C",
"3+	c #28384B",
"4+	c #C8CACC",
"5+	c #C1C3C5",
"6+	c #223142",
"7+	c #212F3E",
"8+	c #D4D5D6",
"9+	c #585E66",
"0+	c #17202C",
"a+	c #C5C7CA",
"b+	c #252E39",
"c+	c #D0D1D3",
"                                                  . . . . . . . . . . . ",
"                                                  . . . . . . . . . . . ",
"                                                  . . . . . . . . . . . ",
"                                                  . . . . . . . . . . . ",
"                                                  . . . . . . . . . . . ",
"      + @                                         . . . . . . . . . . . ",
"    # $ %                                         . . . . . . . . . . . ",
"    & * = -                                       . ; ; ; ; ; . . . . . ",
"    > , ' )                                       ; . . . . . ; . . . . ",
"    ! ~ { ] &           ^ /                       ; . . . . . ; . . . . ",
"    ( _ : < [         @ } | &                   ; . . . . . . ; . . . . ",
"    1 2 3 4 5 #       6 7 8 9 &                 ; . . . . . . . ; . . . ",
"    0 a b c d e       f g h i j 6               ; . . . . . . . ; . . . ",
"    k l m n o p q     r s t u v w >           ;   . . . . . . . ; . . . ",
"    x y z A B C D E E D F G H b I J +         ;   . . . . . . . ; . . . ",
"    [ K n L M N N N N N O P Q R b I J S       ;   . . . . . . . . ; . . ",
"    T U n V W X Y Z `  ...+.@.#.m b i $.%.    ;   . . . . . . . . ; . . ",
"    &.*.n =.-.;.>.,.'.).!.~.{.].^.n b /.w (.  ;   . . . . . . . . ; . . ",
"    _.:.<.[.}.|.1.2.3.4.5.6.7.8.9.n 0.a.b.q       . . . . . . . . . ; . ",
"    c.d.3 e.f.1.g.,.'.h.i.j.+.k.l.m.n.o.p.  ;     . . . . . . . . . ; . ",
"    q.r.s.t.u.v.v.v.v.v.m.w.x.y.z.A.B.&     ;     . . . . . . . . . ; . ",
"    C.D.E.F.G.H.I.J.J.K.L.M.@.N.O.P.(.      ;     . . . . . . . . . ; . ",
"    Q.R.S.n n *.T.    U.V.W.X.Y.Z.#         ;     . . . . . . . . . ; . ",
"    @ `. +c n .+++    @+#+$+%+&+              ;   . . . . . . . . ; . . ",
"      *+=+-+n ;+>+    E ,+'+)+                ;   . . . . . . . . ; . . ",
"      !+~+{+c ]+^+    = /+(+                  ;   . . . . . . . . ; . . ",
"        )+_+:+<+[+    }+|+                      ; . . . . . . . ; . . . ",
"          1+2+3+4+                              ; . . . . . . . ; . . . ",
"          5+6+7+8+                                ; . . . . . ; . . . . ",
"            9+0+S                                 ; . . . . ; . . . . . ",
"            a+b+@                                 . ; . . ; . . . . . . ",
"              c+                                  . ; ; ; . . . . . . . ",
"                                                  . . . . . . . . . . . ",
"                                                  . . . . . . . . . . . ",
"                                                  . . . . . . . . . . . ",
"                                                  . . . . . . . . . . . "};
