/* XPM */
static char * adrInfos_xpm[] = {
"64 64 631 2",
"  	c None",
". 	c #0085DB",
"+ 	c #008DE8",
"@ 	c #008BE5",
"# 	c #018DE8",
"$ 	c #0092F0",
"% 	c #0097F8",
"& 	c #0097F9",
"* 	c #0098F9",
"= 	c #018CE6",
"- 	c #0194F4",
"; 	c #0096F7",
"> 	c #0096F8",
", 	c #018DE9",
"' 	c #0195F5",
") 	c #0095F6",
"! 	c #0195F6",
"~ 	c #018AE4",
"{ 	c #0093F4",
"] 	c #0094F4",
"^ 	c #0495F4",
"/ 	c #1C9AF5",
"( 	c #2CA1F6",
"_ 	c #37A7F6",
": 	c #3DAAF6",
"< 	c #42AEF7",
"[ 	c #44AFF7",
"} 	c #2CA1F5",
"| 	c #1B99F3",
"1 	c #0393F1",
"2 	c #0093F3",
"3 	c #0290EF",
"4 	c #0092F2",
"5 	c #0092F3",
"6 	c #0593F3",
"7 	c #269DF4",
"8 	c #3BA8F5",
"9 	c #47B0F6",
"0 	c #4BB2F6",
"a 	c #4CB2F6",
"b 	c #4BB1F5",
"c 	c #54AAE7",
"d 	c #9EC1E3",
"e 	c #C2D4E6",
"f 	c #C8D7E7",
"g 	c #BACCE5",
"h 	c #79A7DF",
"i 	c #0E8EEB",
"j 	c #0287DF",
"k 	c #0191F0",
"l 	c #0090F1",
"m 	c #0B93F1",
"n 	c #31A1F3",
"o 	c #46AEF4",
"p 	c #4AAEF1",
"q 	c #8BB7DF",
"r 	c #EBEFF3",
"s 	c #FBFBFB",
"t 	c #FCFCFC",
"u 	c #FAFBFB",
"v 	c #CEDAE9",
"w 	c #419AE5",
"x 	c #038AE4",
"y 	c #018FEE",
"z 	c #008FEF",
"A 	c #0390EF",
"B 	c #2E9EF1",
"C 	c #46ADF3",
"D 	c #4AB0F3",
"E 	c #49AEF2",
"F 	c #8EB8DE",
"G 	c #F6F7F8",
"H 	c #C7D6E6",
"I 	c #45A9ED",
"J 	c #038AE5",
"K 	c #018DED",
"L 	c #008DED",
"M 	c #1994ED",
"N 	c #40A8F1",
"O 	c #57A7E1",
"P 	c #EDF0F3",
"Q 	c #F7F8F9",
"R 	c #6CABDF",
"S 	c #49AEF1",
"T 	c #0388E3",
"U 	c #008CEB",
"V 	c #008BEB",
"W 	c #2999ED",
"X 	c #46ABF0",
"Y 	c #48ACF0",
"Z 	c #48ABF0",
"` 	c #A5C2E0",
" .	c #FAFAFA",
"..	c #9CBEDF",
"+.	c #0486DE",
"@.	c #018AE8",
"#.	c #008AE8",
"$.	c #309CEC",
"%.	c #46AAEE",
"&.	c #46A8EB",
"*.	c #C6D5E3",
"=.	c #A5C1DE",
"-.	c #0486DF",
";.	c #0480D6",
">.	c #0189E6",
",.	c #0088E6",
"'.	c #0188E6",
").	c #329BEA",
"!.	c #45A8ED",
"~.	c #44A5E9",
"{.	c #CCD7E4",
"].	c #F9F9F9",
"^.	c #92B7DC",
"/.	c #0387E3",
"(.	c #0086E4",
"_.	c #2E98E7",
":.	c #44A6EB",
"<.	c #43A5E9",
"[.	c #BBCDE0",
"}.	c #F0F2F4",
"|.	c #55A0DA",
"1.	c #0585DE",
"2.	c #0084E1",
"3.	c #2591E4",
"4.	c #42A4E9",
"5.	c #80ADD8",
"6.	c #F7F7F7",
"7.	c #F8F8F8",
"8.	c #B1C6DD",
"9.	c #41A2E6",
"0.	c #067DD1",
"a.	c #0183DF",
"b.	c #0083DF",
"c.	c #1689E1",
"d.	c #3FA1E7",
"e.	c #41A2E7",
"f.	c #409EE0",
"g.	c #C2D0E0",
"h.	c #C5D2E1",
"i.	c #449CDD",
"j.	c #0583DC",
"k.	c #0081DC",
"l.	c #0381DC",
"m.	c #379AE3",
"n.	c #3FA0E5",
"o.	c #429ADB",
"p.	c #AEC3DA",
"q.	c #EAEDF0",
"r.	c #F6F6F6",
"s.	c #F5F5F6",
"t.	c #DEE4EA",
"u.	c #9AB7D7",
"v.	c #409BDD",
"w.	c #077BCF",
"x.	c #017FDA",
"y.	c #007FDA",
"z.	c #268DDE",
"A.	c #3E9EE3",
"B.	c #3E9DE3",
"C.	c #3D9CE0",
"D.	c #4396D5",
"E.	c #6EA2D3",
"F.	c #7EA9D5",
"G.	c #5B9BD2",
"H.	c #3E97D9",
"I.	c #3D9DE2",
"J.	c #067FD8",
"K.	c #007DD7",
"L.	c #077FD8",
"M.	c #3999E0",
"N.	c #3C9BE0",
"O.	c #0976C7",
"P.	c #017BD5",
"Q.	c #007AD5",
"R.	c #007BD5",
"S.	c #268ADA",
"T.	c #3A99DE",
"U.	c #3A98DD",
"V.	c #3A94D7",
"W.	c #4292D0",
"X.	c #4E94CE",
"Y.	c #5597CE",
"Z.	c #4492CF",
"`.	c #3A95D8",
" +	c #3A98DE",
".+	c #087AD0",
"++	c #0078D2",
"@+	c #0379D3",
"#+	c #3593DB",
"$+	c #3896DC",
"%+	c #3991D4",
"&+	c #76A2CE",
"*+	c #B6C6D9",
"=+	c #D9DFE5",
"-+	c #EDEFF0",
";+	c #F2F3F3",
">+	c #EEEFF1",
",+	c #D0D8E2",
"'+	c #7DA5CF",
")+	c #3894DA",
"!+	c #0679D1",
"~+	c #0076D0",
"{+	c #1A80D3",
"]+	c #3793DA",
"^+	c #3693DA",
"/+	c #378FD2",
"(+	c #88A9CE",
"_+	c #D6DCE4",
":+	c #F3F3F3",
"<+	c #F4F4F4",
"[+	c #EFF0F1",
"}+	c #83A6CD",
"|+	c #3693D9",
"1+	c #0B72C1",
"2+	c #0174CD",
"3+	c #0074CD",
"4+	c #2988D4",
"5+	c #3591D7",
"6+	c #3490D6",
"7+	c #5D94C9",
"8+	c #CBD3DE",
"9+	c #F2F2F3",
"0+	c #D8DDE4",
"a+	c #368CCF",
"b+	c #0B74C5",
"c+	c #0072CA",
"d+	c #0273CB",
"e+	c #308CD4",
"f+	c #338ED5",
"g+	c #338CD2",
"h+	c #86A6CA",
"i+	c #E6E9EB",
"j+	c #F2F2F2",
"k+	c #F5F5F5",
"l+	c #F0F0F1",
"m+	c #4D8DC6",
"n+	c #0A74C9",
"o+	c #0070C8",
"p+	c #1076CA",
"q+	c #318BD2",
"r+	c #318BD3",
"s+	c #3188CE",
"t+	c #9DB2CD",
"u+	c #EEEFF0",
"v+	c #EBECEE",
"w+	c #D7DCE1",
"x+	c #F0F1F1",
"y+	c #5E91C4",
"z+	c #0972C6",
"A+	c #006DC5",
"B+	c #1B79C9",
"C+	c #2F89D0",
"D+	c #2F88D0",
"E+	c #2F86CB",
"F+	c #A1B4CD",
"G+	c #F0F0F0",
"H+	c #F1F1F1",
"I+	c #CAD2DC",
"J+	c #588CC1",
"K+	c #2E83C7",
"L+	c #B9C3D3",
"M+	c #EFEFF0",
"N+	c #4C89C1",
"O+	c #0C65AD",
"P+	c #056EC3",
"Q+	c #006BC2",
"R+	c #207BC8",
"S+	c #2E86CD",
"T+	c #2D84CA",
"U+	c #9AAEC9",
"V+	c #EEEFEF",
"W+	c #BFC9D6",
"X+	c #3682C3",
"Y+	c #2D86CD",
"Z+	c #BDC6D5",
"`+	c #E2E4E7",
" @	c #3380C2",
".@	c #126BB5",
"+@	c #026AC0",
"@@	c #0069BF",
"#@	c #237BC7",
"$@	c #2B82CA",
"%@	c #2B81C8",
"&@	c #8BA3C4",
"*@	c #EDEDEE",
"=@	c #C4CCD8",
"-@	c #327EC1",
";@	c #3D80BE",
">@	c #E5E7E9",
",@	c #C4CCD7",
"'@	c #2B80C7",
")@	c #1369B1",
"!@	c #0167BD",
"~@	c #0067BD",
"{@	c #247BC5",
"]@	c #2980C8",
"^@	c #2980C7",
"/@	c #658DBD",
"(@	c #E7E9EA",
"_@	c #EFEFEF",
":@	c #D0D5DD",
"<@	c #3B7EBD",
"[@	c #297FC7",
"}@	c #94A9C6",
"|@	c #90A6C5",
"1@	c #1468AF",
"2@	c #0165BA",
"3@	c #0065BA",
"4@	c #2379C3",
"5@	c #287DC5",
"6@	c #287AC0",
"7@	c #C8CFD8",
"8@	c #EEEEEE",
"9@	c #DBDEE2",
"0@	c #4E81BA",
"a@	c #277CC5",
"b@	c #2979BE",
"c@	c #CED4DB",
"d@	c #E5E7E8",
"e@	c #3E7CB8",
"f@	c #1567AD",
"g@	c #0163B7",
"h@	c #0063B7",
"i@	c #2277C0",
"j@	c #267AC2",
"k@	c #2976BB",
"l@	c #D0D6DD",
"m@	c #5E87B8",
"n@	c #2579C1",
"o@	c #2679C2",
"p@	c #668BB9",
"q@	c #ECEDED",
"r@	c #BDC5D2",
"s@	c #2578BF",
"t@	c #1665AB",
"u@	c #0161B4",
"v@	c #0060B4",
"w@	c #1F73BD",
"x@	c #2477BF",
"y@	c #2476BE",
"z@	c #3677B6",
"A@	c #3777B6",
"B@	c #2375BC",
"C@	c #B2BCCC",
"D@	c #EDEDED",
"E@	c #7A95BB",
"F@	c #1865AA",
"G@	c #035FB2",
"H@	c #005EB1",
"I@	c #1B6EB9",
"J@	c #2273BC",
"K@	c #2273BB",
"L@	c #3572B1",
"M@	c #E0E2E5",
"N@	c #DBDEE1",
"O@	c #2B70B2",
"P@	c #1864AA",
"Q@	c #125B9E",
"R@	c #0860B1",
"S@	c #005CAF",
"T@	c #1668B5",
"U@	c #2070B9",
"V@	c #2070B8",
"W@	c #8FA1BD",
"X@	c #ECECEC",
"Y@	c #AAB5C7",
"Z@	c #206FB7",
"`@	c #1061B0",
" #	c #005AAC",
".#	c #1062B0",
"+#	c #1E6DB6",
"@#	c #206AB0",
"##	c #C9CED6",
"$#	c #EBEBEB",
"%#	c #E9EAEA",
"&#	c #5F80AF",
"*#	c #1361AD",
"=#	c #0058A9",
"-#	c #075CAB",
";#	c #1C6AB3",
">#	c #1C6AB2",
",#	c #5F7FAD",
"'#	c #E8E9E9",
")#	c #CDD1D7",
"!#	c #1F67AC",
"~#	c #155EA7",
"{#	c #0055A6",
"]#	c #0156A7",
"^#	c #1966AF",
"/#	c #1A67AF",
"(#	c #1A66AD",
"_#	c #ADB6C5",
":#	c #EAEAEA",
"<#	c #97A4BC",
"[#	c #1A66AF",
"}#	c #195CA0",
"|#	c #0254A4",
"1#	c #0053A4",
"2#	c #125EAA",
"3#	c #1964AD",
"4#	c #2D64A4",
"5#	c #DCDEE0",
"6#	c #E9E9E9",
"7#	c #E3E4E5",
"8#	c #426CA4",
"9#	c #125AA5",
"0#	c #0051A1",
"a#	c #0856A4",
"b#	c #1761A9",
"c#	c #1760A9",
"d#	c #1660A9",
"e#	c #8998B4",
"f#	c #E8E8E8",
"g#	c #BEC3CC",
"h#	c #175FA5",
"i#	c #185BA3",
"j#	c #004F9E",
"k#	c #01509F",
"l#	c #135CA5",
"m#	c #155DA6",
"n#	c #175BA1",
"o#	c #C5C9D1",
"p#	c #8090AF",
"q#	c #1C599A",
"r#	c #054F9D",
"s#	c #004D9C",
"t#	c #0B54A0",
"u#	c #135AA3",
"v#	c #5974A1",
"w#	c #E5E5E5",
"x#	c #E7E7E7",
"y#	c #DADBDE",
"z#	c #275B9B",
"A#	c #1858A0",
"B#	c #004A99",
"C#	c #014B9A",
"D#	c #1056A0",
"E#	c #1157A0",
"F#	c #11569F",
"G#	c #A7AFBE",
"H#	c #ADB3C1",
"I#	c #11569E",
"J#	c #12569E",
"K#	c #1D5799",
"L#	c #034A97",
"M#	c #004997",
"N#	c #074E9A",
"O#	c #10549D",
"P#	c #205496",
"Q#	c #D6D8DB",
"R#	c #E6E6E6",
"S#	c #6579A1",
"T#	c #10539D",
"U#	c #2D5997",
"V#	c #B4B9C5",
"W#	c #8793AE",
"X#	c #0F539C",
"Y#	c #1A559C",
"Z#	c #004794",
"`#	c #0C4F99",
" $	c #0E519A",
".$	c #7383A4",
"+$	c #CDCFD4",
"@$	c #174F94",
"#$	c #235394",
"$$	c #BFC3CB",
"%$	c #B6BBC5",
"&$	c #0E5098",
"*$	c #1E5393",
"=$	c #094994",
"-$	c #004592",
";$	c #024693",
">$	c #0C4D97",
",$	c #0D4E97",
"'$	c #0C4D95",
")$	c #AFB4C0",
"!$	c #979FB2",
"~$	c #194E92",
"{$	c #B4B9C4",
"]$	c #E3E3E4",
"^$	c #7180A1",
"/$	c #0D4D97",
"($	c #1F5598",
"_$	c #00438F",
":$	c #044691",
"<$	c #0B4B94",
"[$	c #1B4C8E",
"}$	c #D4D6D8",
"|$	c #E4E4E4",
"1$	c #E0E1E1",
"2$	c #405D91",
"3$	c #124A90",
"4$	c #A6ADBA",
"5$	c #ABB0BD",
"6$	c #0E4A91",
"7$	c #194F94",
"8$	c #00418D",
"9$	c #05458F",
"0$	c #0A4891",
"a$	c #5D6F97",
"b$	c #E3E3E3",
"c$	c #C8CACF",
"d$	c #0D468C",
"e$	c #12488D",
"f$	c #9FA6B5",
"g$	c #C2C5CB",
"h$	c #234D8C",
"i$	c #1F4F8D",
"j$	c #10478F",
"k$	c #003F8B",
"l$	c #05438D",
"m$	c #08458F",
"n$	c #08458E",
"o$	c #939AAD",
"p$	c #BABEC5",
"q$	c #08438A",
"r$	c #234A89",
"s$	c #ABB0BC",
"t$	c #E2E2E3",
"u$	c #39558C",
"v$	c #225190",
"w$	c #0A428B",
"x$	c #003D89",
"y$	c #04408A",
"z$	c #07428C",
"A$	c #07428A",
"B$	c #B0B4BE",
"C$	c #DEDEDF",
"D$	c #AEB3BC",
"E$	c #CFD0D4",
"F$	c #C5C7CD",
"G$	c #3B558A",
"H$	c #23518F",
"I$	c #073F88",
"J$	c #003C86",
"K$	c #023D87",
"L$	c #054089",
"M$	c #063F85",
"N$	c #C5C7CC",
"O$	c #E2E2E2",
"P$	c #B7BAC2",
"Q$	c #2D4B85",
"R$	c #054088",
"S$	c #24508E",
"T$	c #0A3F87",
"U$	c #003A84",
"V$	c #013A84",
"W$	c #043D86",
"X$	c #083C82",
"Y$	c #C8CBCF",
"Z$	c #9AA0AF",
"`$	c #143F82",
" %	c #053D86",
".%	c #244E8B",
"+%	c #124287",
"@%	c #003882",
"#%	c #023880",
"$%	c #BFC1C7",
"%%	c #E1E1E1",
"&%	c #CACCD0",
"*%	c #6A7493",
"=%	c #043A81",
"-%	c #043B83",
";%	c #043B84",
">%	c #033B83",
",%	c #023A83",
"'%	c #224A85",
")%	c #1C4789",
"!%	c #003780",
"~%	c #00367F",
"{%	c #8C92A4",
"]%	c #E0E0E1",
"^%	c #D6D7D8",
"/%	c #979CAB",
"(%	c #20407D",
"_%	c #023881",
":%	c #023981",
"<%	c #013880",
"[%	c #244C8A",
"}%	c #0C3B81",
"|%	c #00357E",
"1%	c #12387B",
"2%	c #A9ADB7",
"3%	c #DEDFDF",
"4%	c #E0E0E0",
"5%	c #DFDFDF",
"6%	c #C8CACD",
"7%	c #959AA9",
"8%	c #33497E",
"9%	c #02367E",
"0%	c #02377F",
"a%	c #01367F",
"b%	c #01367E",
"c%	c #254B84",
"d%	c #204888",
"e%	c #04367E",
"f%	c #00337C",
"g%	c #043379",
"h%	c #5D688A",
"i%	c #989CAA",
"j%	c #A5A8B3",
"k%	c #A0A3AF",
"l%	c #838A9E",
"m%	c #505E85",
"n%	c #0C3578",
"o%	c #01347C",
"p%	c #01347D",
"q%	c #00347D",
"r%	c #00347C",
"s%	c #264B85",
"t%	c #214786",
"u%	c #08377D",
"v%	c #00327A",
"w%	c #00327B",
"x%	c #264982",
"y%	c #224885",
"z%	c #1C4282",
"A%	c #04337A",
"B%	c #003179",
"C%	c #274981",
"D%	c #234682",
"E%	c #204584",
"F%	c #1E4282",
"G%	c #133B7E",
"H%	c #063379",
"I%	c #033178",
"J%	c #023178",
"K%	c #204177",
"L%	c #2B4C83",
"M%	c #2B4C82",
"N%	c #2B4D82",
"                                                                                                                                ",
"                                                                                                                                ",
"                                                                                                                                ",
"                                                        . + @ @ @ @ + .                                                         ",
"                                                # $ % & * * * * * * * * & % $ #                                                 ",
"                                          = - ; > > > > > > > > > > > > > > > > ; - =                                           ",
"                                      , ' ) ) ) ) ) ) ) ) ) ! ! ! ! ) ) ) ) ) ) ) ) ) ' ,                                       ",
"                                  ~ - { { { { { ] ^ / ( _ : < [ [ < : _ } | 1 2 { { { { { - ~                                   ",
"                                3 4 5 5 5 5 6 7 8 9 0 a a a a a a a b c d e f g h i 4 5 5 5 4 3                                 ",
"                            j k l l l l m n o b b b b b b b b b b p q r s t t t u v w m l l l l k j                             ",
"                          x y z z z A B C D D D D D D D D D D D E F G s s s s s s s H I B A z z z y x                           ",
"                        J K L L L M N E E E E E E E E E E E E E O P s s s s s s s s Q R S N M L L L K J                         ",
"                      T U V V U W X Y Y Y Y Y Y Y Y Y Y Y Y Y Z `  . . .s s s s s  . ...Y Y X W U V V U T                       ",
"                    +.@.#.#.@.$.%.%.%.%.%.%.%.%.%.%.%.%.%.%.%.&.*. . .s s s s s s  . .=.%.%.%.%.$.@.#.#.@.-.                    ",
"                  ;.>.,.,.'.).!.!.!.!.!.!.!.!.!.!.!.!.!.!.!.!.~.{.].].s s s s s  .].].^.!.!.!.!.!.).'.,.,.>.;.                  ",
"                  /.(.(.(._.:.:.:.:.:.:.:.:.:.:.:.:.:.:.:.:.:.<.[.].]. .s s  . .].].}.|.:.:.:.:.:.:._.(.(.(./.                  ",
"                1.2.2.2.3.4.4.4.4.4.4.4.4.4.4.4.4.4.4.4.4.4.4.4.5.6.7.7.].].].7.7.7.8.9.4.4.4.4.4.4.4.3.2.2.2.1.                ",
"              0.a.b.b.c.d.e.e.e.e.e.e.e.e.e.e.e.e.e.e.e.e.e.e.e.f.g.6.6.6.6.6.6.6.h.i.e.e.e.e.e.e.e.e.d.c.b.b.a.0.              ",
"              j.k.k.l.m.n.n.n.n.n.n.n.n.n.n.n.n.n.n.n.n.n.n.n.n.n.o.p.q.r.r.s.t.u.v.n.n.n.n.n.n.n.n.n.n.m.l.k.k.j.              ",
"            w.x.y.y.z.A.A.A.A.A.A.A.A.A.A.A.A.A.A.A.A.A.A.A.A.A.A.B.C.D.E.F.G.H.I.B.A.A.A.A.A.A.A.A.A.A.A.z.y.y.x.w.            ",
"            J.K.K.L.M.N.N.N.N.N.N.N.N.N.N.N.N.N.N.N.N.N.N.N.N.N.N.N.N.N.N.N.N.N.N.N.N.N.N.N.N.N.N.N.N.N.N.M.L.K.K.J.            ",
"          O.P.Q.R.S.T.T.T.T.T.T.T.T.T.T.T.T.T.T.T.T.T.T.T.T.U.V.W.X.Y.Z.`. +T.T.T.T.T.T.T.T.T.T.T.T.T.T.T.T.S.R.Q.P.O.          ",
"          .+++++@+#+$+$+$+$+$+$+$+$+$+$+$+$+$+$+$+$+$+$+%+&+*+=+-+;+;+>+,+'+)+$+$+$+$+$+$+$+$+$+$+$+$+$+$+$+#+@+++++.+          ",
"          !+~+~+{+]+]+]+]+]+]+]+]+]+]+]+]+]+]+]+]+^+/+(+_+:+<+<+<+<+<+<+<+[+}+|+]+]+]+]+]+]+]+]+]+]+]+]+]+]+]+{+~+~+!+          ",
"        1+2+3+3+4+5+5+5+5+5+5+5+5+5+5+5+5+5+5+5+6+7+8+9+:+:+:+:+<+<+<+:+:+:+0+a+5+5+5+5+5+5+5+5+5+5+5+5+5+5+5+4+3+3+2+1+        ",
"        b+c+c+d+e+f+f+f+f+f+f+f+f+f+f+f+f+f+f+g+h+i+j+j+j+j+:+k+k+k+k+k+:+j+l+m+f+f+f+f+f+f+f+f+f+f+f+f+f+f+f+e+d+c+c+b+        ",
"        n+o+o+p+q+r+r+r+r+r+r+r+r+r+r+r+r+q+s+t+u+j+v+w+u+j+j+k+k+k+k+k+:+j+x+y+r+r+r+r+r+r+r+r+r+r+r+r+r+r+r+q+p+o+o+n+        ",
"        z+A+A+B+C+C+C+C+C+C+C+C+C+C+C+C+D+E+F+G+H+I+J+K+L+H+H+<+<+<+<+<+j+H+M+N+C+C+C+C+C+C+C+C+C+C+C+C+C+C+C+C+B+A+A+z+        ",
"      O+P+Q+Q+R+S+S+S+S+S+S+S+S+S+S+S+S+T+U+V+G+W+X+Y+T+Z+G+G+:+:+:+:+:+H+G+`+ @S+S+S+S+S+S+S+S+S+S+S+S+S+S+S+S+R+Q+Q+P+O+      ",
"      .@+@@@@@#@$@$@$@$@$@$@$@$@$@$@$@%@&@*@G+=@-@$@$@;@>@G+G+:+:+:+:+j+G+G+,@'@$@$@$@$@$@$@$@$@$@$@$@$@$@$@$@$@#@@@@@+@.@      ",
"      )@!@~@~@{@]@]@]@]@]@]@]@]@]@]@^@/@(@_@:@<@^@]@[@}@_@_@G+j+j+j+j+G+_@_@|@[@]@]@]@]@]@]@]@]@]@]@]@]@]@]@]@]@{@~@~@!@)@      ",
"      1@2@3@3@4@5@5@5@5@5@5@5@5@5@5@6@7@8@9@0@a@5@5@b@c@8@8@G+H+H+H+H+8@8@d@e@5@5@5@5@5@5@5@5@5@5@5@5@5@5@5@5@5@4@3@3@2@1@      ",
"      f@g@h@h@i@j@j@j@j@j@j@j@j@j@j@k@l@9@m@n@j@j@o@p@q@8@8@H+H+H+H+G+8@8@r@s@j@j@j@j@j@j@j@j@j@j@j@j@j@j@j@j@j@i@h@h@g@f@      ",
"      t@u@v@v@w@x@x@x@x@x@x@x@x@x@x@y@z@A@y@x@x@x@B@C@D@D@_@G+G+G+G+8@D@q@E@y@x@x@x@x@x@x@x@x@x@x@x@x@x@x@x@x@x@w@v@v@u@t@      ",
"      F@G@H@H@I@J@J@J@J@J@J@J@J@J@J@J@J@J@J@J@J@K@L@M@D@D@_@G+G+G+_@D@D@N@O@J@J@J@J@J@J@J@J@J@J@J@J@J@J@J@J@J@J@I@H@H@G@P@      ",
"      Q@R@S@S@T@U@U@U@U@U@U@U@U@U@U@U@U@U@U@U@U@V@W@X@X@D@_@_@_@_@8@X@X@Y@Z@U@U@U@U@U@U@U@U@U@U@U@U@U@U@U@U@U@U@T@S@S@R@Q@      ",
"        `@ # #.#+#+#+#+#+#+#+#+#+#+#+#+#+#+#+#+#@###$#$#D@8@8@8@8@X@$#%#&#+#+#+#+#+#+#+#+#+#+#+#+#+#+#+#+#+#+#+#.# # #`@        ",
"        *#=#=#-#;#;#;#;#;#;#;#;#;#;#;#;#;#;#;#>#,#'#$#$#D@D@D@D@X@$#$#)#!#;#;#;#;#;#;#;#;#;#;#;#;#;#;#;#;#;#;#;#-#=#=#*#        ",
"        ~#{#{#]#^#/#/#/#/#/#/#/#/#/#/#/#/#/#/#(#_#:#:#$#X@X@X@X@$#:#:#<#[#/#/#/#/#/#/#/#/#/#/#/#/#/#/#/#/#/#/#^#]#{#{#~#        ",
"        }#|#1#1#2#3#3#3#3#3#3#3#3#3#3#3#3#3#3#4#5#6#6#$#$#$#$#$#6#6#7#8#3#3#3#3#3#3#3#3#3#3#3#3#3#3#3#3#3#3#3#2#1#1#|#}#        ",
"          9#0#0#a#b#c#c#c#c#c#c#c#c#c#c#c#c#d#e#f#6#6#$#$#$#$#:#6#6#g#h#c#c#c#c#c#c#c#c#c#c#c#c#c#c#c#c#c#c#b#a#0#0#9#          ",
"          i#j#j#k#l#m#m#m#m#m#m#m#m#m#m#m#m#n#o#f#f#6#:#:#:#:#6#f#f#p#m#m#m#m#m#m#m#m#m#m#m#m#m#m#m#m#m#m#m#l#k#j#j#i#          ",
"          q#r#s#s#t#u#u#u#u#u#u#u#u#u#u#u#u#v#w#x#x#6#6#6#6#6#x#x#y#z#u#u#u#u#u#u#u#u#u#u#u#u#u#u#u#u#u#u#u#t#s#s#r#q#          ",
"            A#B#B#C#D#E#E#E#E#E#E#E#E#E#E#F#G#x#x#f#6#6#6#6#f#x#x#H#I#E#E#E#E#J#F#E#E#E#E#E#E#E#E#E#E#E#E#D#C#B#B#A#            ",
"            K#L#M#M#N#O#O#O#O#O#O#O#O#O#O#P#Q#R#R#f#f#f#f#f#R#R#w#S#O#O#O#T#U#V#W#X#O#O#O#O#O#O#O#O#O#O#O#N#M#M#L#K#            ",
"              Y#Z#Z#Z#`# $ $ $ $ $ $ $ $ $.$w#w#R#x#x#x#x#x#R#w#+$@$ $ $ $#$$$w#%$&$ $ $ $ $ $ $ $ $ $ $`#Z#Z#Z#Y#              ",
"              *$=$-$-$;$>$,$,$,$,$,$,$,$'$)$w#w#R#R#R#R#R#R#w#w#!$>$,$,$~${$w#]$^$/$,$,$,$,$,$,$,$,$,$>$;$-$-$=$*$              ",
"                ($_$_$_$:$<$<$<$<$<$<$<$[$}$|$|$w#w#w#w#w#|$|$1$2$<$<$3$4$|$|$5$6$<$<$<$<$<$<$<$<$<$<$:$_$_$_$($                ",
"                  7$8$8$8$9$0$0$0$0$0$0$a$b$|$|$w#w#w#w#w#|$|$c$d$0$e$f$b$|$g$h$0$0$0$0$0$0$0$0$0$0$9$8$8$8$7$                  ",
"                  i$j$k$k$k$l$m$m$m$m$n$o$b$b$|$|$|$|$|$|$b$b$p$q$r$s$t$b$c$u$m$m$m$m$m$m$m$m$m$m$l$k$k$k$j$i$                  ",
"                    v$w$x$x$x$y$z$z$z$A$B$b$b$|$|$|$|$|$|$b$b$C$D$E$b$b$F$G$z$z$z$z$z$z$z$z$z$z$y$x$x$x$w$v$                    ",
"                      H$I$J$J$J$K$L$L$M$N$O$O$b$b$b$b$b$b$O$O$O$O$O$O$P$Q$R$L$L$L$L$L$L$L$L$R$K$J$J$J$I$H$                      ",
"                        S$T$U$U$U$V$W$X$Y$O$O$O$b$b$b$b$O$O$O$O$O$C$Z$`$ % % % % % % % %W$W$V$U$U$U$T$S$                        ",
"                          .%+%@%@%@%@%#%$%%%%%%%%%%%%%%%%%%%%%%%&%*%=%-%;%;%;%;%;%;%;%>%,%@%@%@%@%+%.%                          ",
"                            '%)%!%!%!%~%{%]%%%%%%%%%%%%%%%%%^%/%(%_%:%:%:%:%:%:%:%_%<%!%!%!%!%!%)%'%                            ",
"                                [%}%|%|%1%2%3%4%4%4%4%5%6%7%8%9%0%0%0%0%0%0%a%a%b%|%|%|%|%|%}%[%                                ",
"                                  c%d%e%f%g%h%i%j%k%l%m%n%o%p%p%p%p%p%p%q%r%r%r%r%r%r%r%e%d%c%                                  ",
"                                      s%t%u%v%v%v%v%v%v%v%v%v%v%v%v%v%v%v%v%v%v%v%w%u%t%s%                                      ",
"                                          x%y%z%A%B%B%B%B%B%B%B%B%B%B%B%B%B%B%A%z%y%x%                                          ",
"                                                C%D%E%F%G%H%I%J%J%I%H%G%F%E%D%C%                                                ",
"                                                        K%L%M%N%N%M%L%K%                                                        ",
"                                                                                                                                ",
"                                                                                                                                ",
"                                                                                                                                "};
