/* XPM */
static char * sections_xpm[] = {
"36 36 296 2",
"  	c #F0F0F0",
". 	c #EDEDED",
"+ 	c #DDDEDF",
"@ 	c #DFE0E1",
"# 	c #ECECEC",
"$ 	c #D2D3D5",
"% 	c #353D46",
"& 	c #DADBDC",
"* 	c #EEEEEE",
"= 	c #4F565F",
"- 	c #A3A7AB",
"; 	c #C3C5C7",
"> 	c #0C1622",
", 	c #888D92",
"' 	c #E8E8E9",
") 	c #3B434C",
"! 	c #404851",
"~ 	c #E5E6E6",
"{ 	c #B4B7BA",
"] 	c #1A2A3C",
"^ 	c #36414E",
"/ 	c #D9DADB",
"( 	c #E1E2E3",
"_ 	c #3A4551",
": 	c #1E2E40",
"< 	c #A4A7AB",
"[ 	c #A6A9AD",
"} 	c #314861",
"| 	c #364E69",
"1 	c #898E93",
"2 	c #DBDBDD",
"3 	c #384553",
"4 	c #4A6A8D",
"5 	c #404954",
"6 	c #B7BABD",
"7 	c #E5E5E6",
"8 	c #989CA0",
"9 	c #38526E",
"0 	c #5E85AF",
"a 	c #34404D",
"b 	c #DBDCDE",
"c 	c #D4D5D7",
"d 	c #344353",
"e 	c #6791BD",
"f 	c #293D53",
"g 	c #313943",
"h 	c #555C64",
"i 	c #3F5A79",
"j 	c #719ECE",
"k 	c #354D67",
"l 	c #CDCFD1",
"m 	c #304052",
"n 	c #6B96C4",
"o 	c #577BA2",
"p 	c #38414C",
"q 	c #E4E5E5",
"r 	c #313D4B",
"s 	c #324A65",
"t 	c #545B64",
"u 	c #7A7F85",
"v 	c #456384",
"w 	c #729FCF",
"x 	c #5F86B0",
"y 	c #303B48",
"z 	c #C6C8CA",
"A 	c #2C3D51",
"B 	c #6E9AC9",
"C 	c #273B51",
"D 	c #A5A8AC",
"E 	c #354456",
"F 	c #6C98C6",
"G 	c #3A5470",
"H 	c #565D66",
"I 	c #6D7379",
"J 	c #4C6C8F",
"K 	c #334B66",
"L 	c #898E94",
"M 	c #BFC1C3",
"N 	c #293C52",
"O 	c #709DCD",
"P 	c #597EA6",
"Q 	c #3A434D",
"R 	c #EAEAEA",
"S 	c #D1D2D4",
"T 	c #37495D",
"U 	c #6C97C7",
"V 	c #6E9BCB",
"W 	c #3A5571",
"X 	c #596069",
"Y 	c #EFEFEF",
"Z 	c #60676F",
"` 	c #517397",
" .	c #6087B1",
"..	c #2C3744",
"+.	c #2B4158",
"@.	c #729ECE",
"#.	c #466585",
"$.	c #2A3F57",
"%.	c #101B28",
"&.	c #484F58",
"*.	c #525961",
"=.	c #2E425A",
"-.	c #6A96C7",
";.	c #6592C4",
">.	c #3B5571",
",.	c #5B636B",
"'.	c #565E67",
").	c #5679A0",
"!.	c #8E9298",
"~.	c #324963",
"{.	c #273A50",
"].	c #4A6B90",
"^.	c #587CA3",
"/.	c #6088B2",
"(.	c #6A97C8",
"_.	c #618EC0",
":.	c #6B97C9",
"<.	c #E0E1E2",
"[.	c #EBEBEB",
"}.	c #4B545F",
"|.	c #5A80A8",
"1.	c #3F5B79",
"2.	c #878C92",
"3.	c #213246",
"4.	c #638DBB",
"5.	c #35609A",
"6.	c #36619B",
"7.	c #3E69A1",
"8.	c #4570A7",
"9.	c #4C78AE",
"0.	c #547FB4",
"a.	c #5985B9",
"b.	c #5F8BBE",
"c.	c #6895C6",
"d.	c #5A616A",
"e.	c #E2E3E4",
"f.	c #E9E9EA",
"g.	c #404A56",
"h.	c #39526F",
"i.	c #969A9E",
"j.	c #1B2A3C",
"k.	c #6893C1",
"l.	c #234D89",
"m.	c #27518D",
"n.	c #305B95",
"o.	c #39649D",
"p.	c #426DA5",
"q.	c #4B76AD",
"r.	c #5480B5",
"s.	c #5D89BC",
"t.	c #6693C5",
"u.	c #6F9CCC",
"v.	c #38516C",
"w.	c #648CB8",
"x.	c #324A64",
"y.	c #A4A8AB",
"z.	c #7B8086",
"A.	c #709CCB",
"B.	c #1A293B",
"C.	c #6994C3",
"D.	c #204A87",
"E.	c #254F8B",
"F.	c #2E5993",
"G.	c #37629B",
"H.	c #406BA3",
"I.	c #4974AB",
"J.	c #527EB3",
"K.	c #5B87BB",
"L.	c #6491C3",
"M.	c #6D9ACA",
"N.	c #719DCD",
"O.	c #3B5573",
"P.	c #505760",
"Q.	c #2B3746",
"R.	c #6993C0",
"S.	c #2C4159",
"T.	c #B3B6B9",
"U.	c #6D737A",
"V.	c #1E3045",
"W.	c #6692C1",
"X.	c #28528E",
"Y.	c #416CA4",
"Z.	c #4A75AB",
"`.	c #517DB2",
" +	c #628FC1",
".+	c #6C99CA",
"++	c #6D99C8",
"@+	c #39526C",
"#+	c #626870",
"$+	c #E7E7E8",
"%+	c #E3E4E4",
"&+	c #1F2D3C",
"*+	c #6D99C7",
"=+	c #25394E",
"-+	c #C2C4C6",
";+	c #5E656D",
">+	c #527499",
",+	c #6790BC",
"'+	c #203349",
")+	c #6189B3",
"!+	c #658DB9",
"~+	c #5E8ABD",
"{+	c #5783B7",
"]+	c #6591C4",
"^+	c #6892C0",
"/+	c #354B64",
"(+	c #757A80",
"_+	c #263240",
":+	c #658EB9",
"<+	c #1F3043",
"[+	c #D0D1D3",
"}+	c #676D74",
"|+	c #476586",
"1+	c #25384D",
"2+	c #1E2E41",
"3+	c #152232",
"4+	c #212A35",
"5+	c #353E47",
"6+	c #1F2833",
"7+	c #4D7097",
"8+	c #5B87BA",
"9+	c #648DB9",
"0+	c #304359",
"a+	c #767B82",
"b+	c #3C5775",
"c+	c #182738",
"d+	c #DEDFE0",
"e+	c #BDBFC2",
"f+	c #2B3B4E",
"g+	c #6A94C2",
"h+	c #6E747A",
"i+	c #52769E",
"j+	c #6793C5",
"k+	c #5F87B3",
"l+	c #2D3D4F",
"m+	c #9A9DA2",
"n+	c #2D3A49",
"o+	c #648DB8",
"p+	c #192635",
"q+	c #5C636B",
"r+	c #49688A",
"s+	c #3A536F",
"t+	c #5F666D",
"u+	c #597FA9",
"v+	c #5B81AB",
"w+	c #2D3B4A",
"x+	c #ADB0B3",
"y+	c #3D5876",
"z+	c #6B95C3",
"A+	c #24303E",
"B+	c #BCBEC1",
"C+	c #2B3A4C",
"D+	c #6B96C3",
"E+	c #354C66",
"F+	c #A2A6AA",
"G+	c #3A5676",
"H+	c #313D4C",
"I+	c #BEC0C3",
"J+	c #CFD0D2",
"K+	c #2E3B4A",
"L+	c #668FBA",
"M+	c #596068",
"N+	c #4A698C",
"O+	c #31465D",
"P+	c #AFB1B5",
"Q+	c #343D47",
"R+	c #CBCDCF",
"S+	c #747A80",
"T+	c #3E5977",
"U+	c #3C4652",
"V+	c #273748",
"W+	c #6D98C7",
"X+	c #2C3F54",
"Y+	c #BBBDC0",
"Z+	c #A1A5A9",
"`+	c #D8D9DA",
" @	c #4F7094",
".@	c #48515B",
"+@	c #595F67",
"@@	c #4A6A8C",
"#@	c #28384B",
"$@	c #C8CACC",
"%@	c #23364A",
"&@	c #535B64",
"*@	c #C1C3C5",
"=@	c #223142",
"-@	c #212F3E",
";@	c #D4D5D6",
">@	c #5E656C",
",@	c #585E66",
"'@	c #17202C",
")@	c #757B81",
"!@	c #72787E",
"~@	c #C5C7CA",
"{@	c #252E39",
"]@	c #DCDDDE",
"                                                                        ",
"                                                                        ",
"                                                                        ",
"                                                                        ",
"                                                                        ",
"        . +                 @ #                                         ",
"        $ % &             * = -                                         ",
"        ; > ,             ' ) ! ~                                       ",
"        { ] ^ /           ( _ : <                                       ",
"        [ } | 1           2 3 4 5 '           6 7                       ",
"        8 9 0 a b         c d e f [         # g h '                     ",
"        1 i j k 1         l m n o p *       q r s t '                   ",
"        u v w x y +       z A B j C D       & E F G H q                 ",
"        I J w j K L       M N O w P Q R     S T U V W X (               ",
"      Y Z ` w w  ...(     { +.@.#.$.%.&.*.*.&.=.-.;.B >.,.@             ",
"      . '.).w w j } !.    [ ~.w {.].^.^.^.^.^./.(._.:.B >.,.<.          ",
"      [.}.|.w w w 1.2.    8 9 w 3.4.5.6.7.8.9.0.a.b.c.O B G d.e.        ",
"      f.g.x w w w h.i.    1 1.w j.k.l.m.n.o.p.q.r.s.t.u.w B v.X [.      ",
"      ' ^ w.w w w x.y.    z.v A.B.C.D.E.F.G.H.I.J.K.L.M.w N.O.P.R       ",
"      ~ Q.R.w w w S.T.    U.J n V.W.E.X.n.o.Y.Z.`.a. +.+++@+#+$+        ",
"      %+&+*+w w w =+-+    ;+>+,+'+)+!+!+!+!+!+++~+{+]+^+/+(+'           ",
"      ~ _+:+w w w <+[+    }+|+R.1+2+3+4+5+5+6+7+8+b.9+0+2.[.            ",
"      Y a+b+j w @.c+d+    e+f+g+w w 1.,     h+i+j+k+l+m+*               ",
"        $ n+o+w A.p+'     # q+r+j w s+i.    t+u+v+w+x+                  ",
"        * a+y+j z+A+R       B+C+D+w E+F+    *.G+H+I+                    ",
"          J+K+!+L+y [.      . M+N+j O+P+    ! Q+R+                      ",
"            S+T+ .U+#         I+V+W+X+Y+    Z+`+                        ",
"            [+n+ @.@.           +@@@#@$@                                ",
"              S+%@&@*           *@=@-@;@                                ",
"              J+4+>@Y             ,@'@<.                                ",
"                )@!@              ~@{@#                                 ",
"                %+]@                [+                                  ",
"                                                                        ",
"                                                                        ",
"                                                                        ",
"                                                                        "};
