/* XPM */
static char * SheetMain_xpm[] = {
"64 64 114 2",
"  	c None",
". 	c #2E3435",
"+ 	c #2E3436",
"@ 	c #2E3336",
"# 	c #CECFD0",
"$ 	c #FFFFFF",
"% 	c #FEFEFE",
"& 	c #FDFDFC",
"* 	c #FCFDFC",
"= 	c #FCFCFC",
"- 	c #FCFCFB",
"; 	c #FBFCFB",
"> 	c #FBFBFB",
", 	c #FBFBFA",
"' 	c #FAFBFA",
") 	c #FAFAFA",
"! 	c #FAFAF9",
"~ 	c #F9FAF9",
"{ 	c #F9F9F8",
"] 	c #F8F9F8",
"^ 	c #F8F9F7",
"/ 	c #F8F8F7",
"( 	c #F7F8F7",
"_ 	c #F7F8F6",
": 	c #F7F7F6",
"< 	c #F6F7F6",
"[ 	c #F6F7F5",
"} 	c #F5F6F5",
"| 	c #F5F6F4",
"1 	c #FDFEFD",
"2 	c #FDFDFD",
"3 	c #F4F5F4",
"4 	c #F4F5F3",
"5 	c #F4F5F2",
"6 	c #F3F4F2",
"7 	c #F3F4F1",
"8 	c #F2F3F1",
"9 	c #F2F3F0",
"0 	c #F1F3F0",
"a 	c #F1F2F0",
"b 	c #F1F2EF",
"c 	c #F0F2EF",
"d 	c #F0F1EF",
"e 	c #F0F1EE",
"f 	c #EFF1EE",
"g 	c #EFF0ED",
"h 	c #EEF0ED",
"i 	c #EEF0EC",
"j 	c #EEEFEC",
"k 	c #EDEFEC",
"l 	c #EDEFEB",
"m 	c #EDEEEB",
"n 	c #ECEEEB",
"o 	c #ECEEEA",
"p 	c #ECEDEA",
"q 	c #EBEDEA",
"r 	c #EBEDE9",
"s 	c #EBECE9",
"t 	c #EAECE8",
"u 	c #E9EBE7",
"v 	c #E8EAE6",
"w 	c #F3F5F2",
"x 	c #E7EAE5",
"y 	c #E7E9E5",
"z 	c #E7E9E4",
"A 	c #E6E9E4",
"B 	c #E6E8E4",
"C 	c #E6E8E3",
"D 	c #E5E8E3",
"E 	c #E5E7E3",
"F 	c #E5E7E2",
"G 	c #E4E7E2",
"H 	c #E4E6E2",
"I 	c #E4E6E1",
"J 	c #E3E6E1",
"K 	c #E3E5E0",
"L 	c #E2E5E0",
"M 	c #E2E5DF",
"N 	c #E2E4DF",
"O 	c #E1E4DF",
"P 	c #E1E4DE",
"Q 	c #E1E3DE",
"R 	c #E0E3DE",
"S 	c #E0E3DD",
"T 	c #DFE2DD",
"U 	c #DFE2DC",
"V 	c #DEE1DC",
"W 	c #DEE1DB",
"X 	c #DEE1DA",
"Y 	c #DDE0DA",
"Z 	c #DDE0D9",
"` 	c #DCDFD9",
" .	c #DCDFD8",
"..	c #DBDFD8",
"+.	c #DBDED8",
"@.	c #DBDED7",
"#.	c #DDE1DA",
"$.	c #DADED7",
"%.	c #DADDD7",
"&.	c #DADDD6",
"*.	c #D9DDD6",
"=.	c #D9DCD5",
"-.	c #D8DCD5",
";.	c #D8DBD4",
">.	c #D7DBD4",
",.	c #D7DBD3",
"'.	c #D7DAD3",
").	c #D6DAD3",
"!.	c #D6DAD2",
"~.	c #D6D9D2",
"{.	c #D5D9D1",
"].	c #D5D8D1",
"^.	c #D4D8D0",
"/.	c #D3D7CF",
"                                                                                                                                ",
"                                                                                                                                ",
"                                                                                                                                ",
"                                                                                                                                ",
"                                                                                                                                ",
"                                                                                                                                ",
"      . + + + + + + + + + + + + + + + + + + + + + + + + + + + + + + + + + + + + + + + + + + + + + + + + + + + + + + + + .       ",
"    @ + + + + + + + + + + + + + + + + + + + + + + + + + + + + + + + + + + + + + + + + + + + + + + + + + + + + + + + + + + @     ",
"    + + # $ $ $ $ $ $ $ $ $ $ $ $ $ $ $ + + + + $ $ $ $ $ $ $ $ $ $ $ $ $ $ $ $ $ $ $ $ $ $ $ $ $ $ $ $ $ $ $ $ $ $ $ # + +     ",
"    + + $ $ $ $ $ $ $ $ $ $ $ $ $ $ $ $ + + + + $ $ $ $ $ $ $ $ $ $ $ $ $ $ $ $ $ $ $ $ $ $ $ $ $ $ $ $ $ $ $ $ $ $ $ $ + +     ",
"    + + $ $ $ $ $ $ $ $ $ $ $ $ $ % % % + + + + & * = = - ; ; > , , ' ) ! ! ~ ~ { { ] ^ ^ / ( _ _ : < [ [ [ } | | | $ $ + +     ",
"    + + $ $ $ $ $ $ $ $ $ % % % % 1 2 2 + + + + - ; ; > , , ' ) ! ! ~ ~ { { ] ^ ^ / ( _ _ : < [ [ [ } | | | 3 4 4 4 $ $ + +     ",
"    + + $ $ $ $ $ % % % % 1 2 2 & * = = + + + + , , ' ) ! ! ~ ~ { { ] ^ ^ / ( _ _ : < [ [ [ } | | | 3 4 4 4 5 6 6 6 $ $ + +     ",
"    + + $ $ % % % 1 2 2 & * = = - ; ; > + + + + ! ! ~ ~ { { ] ^ ^ / ( _ _ : < [ [ [ } | | | 3 4 4 4 5 6 6 6 7 8 8 8 $ $ + +     ",
"    + + $ $ 2 2 & * = = - ; ; > , , ' ) + + + + { { ] ^ ^ / ( _ _ : < [ [ [ } | | | 3 4 4 4 5 6 6 6 7 8 8 8 9 0 a a $ $ + +     ",
"    + + $ $ = = - ; ; > , , ' ) ! ! ~ ~ + + + + ^ / ( _ _ : < [ [ [ } | | | 3 4 4 4 5 6 6 6 7 8 8 8 9 0 a a b c d d $ $ + +     ",
"    + + + + + + + + + + + + + + + + + + + + + + + + + + + + + + + + + + + + + + + + + + + + + + + + + + + + + + + + + + + +     ",
"    + + + + + + + + + + + + + + + + + + + + + + + + + + + + + + + + + + + + + + + + + + + + + + + + + + + + + + + + + + + +     ",
"    + + + + + + + + + + + + + + + + + + + + + + + + + + + + + + + + + + + + + + + + + + + + + + + + + + + + + + + + + + + +     ",
"    + + + + + + + + + + + + + + + + + + + + + + + + + + + + + + + + + + + + + + + + + + + + + + + + + + + + + + + + + + + +     ",
"    + + $ $ ( _ _ : < [ [ [ } | | | 3 4 + + + + 6 6 7 8 8 8 9 0 a a b c d d e f f g g h h i j k k l m m n o o p q r $ $ + +     ",
"    + + $ $ < [ [ [ } | | | 3 4 4 4 5 6 + + + + 8 8 9 0 a a b c d d e f f g g h h i j k k l m m n o o p q r r s t t $ $ + +     ",
"    + + $ $ } | | | 3 4 4 4 5 6 6 6 7 8 + + + + a a b c d d e f f g g h h i j k k l m m n o o p q r r s t t t t u u $ $ + +     ",
"    + + $ $ 3 4 4 4 5 6 6 6 7 8 8 8 9 0 + + + + d d e f f g g h h j j k k l m n n o o p q r r s t t t t u u u u v v $ $ + +     ",
"    + + $ $ w 6 6 6 7 8 8 8 9 0 a a b c + + + + f g g h h j j k k l m n n o o p r r r s t t t t u u u u v v v v x y $ $ + +     ",
"    + + $ $ 7 8 8 8 9 0 a a b c d d e f + + + + h j j k k l m n n o o p r r r s t t t t u u u u v v v v x y y z A B $ $ + +     ",
"    + + $ $ 9 0 a a b c d e e f f g g h + + + + k l m n n o o p r r r s t t t t u u u u v v v v x y y z A B B C D D $ $ + +     ",
"    + + $ $ b c d e e f f g g h h j j k + + + + n o o p r r r s t t t t u u u u v v v v x y y z A B B C D D E F F G $ $ + +     ",
"    + + + + + + + + + + + + + + + + + + + + + + + + + + + + + + + + + + + + + + + + + + + + + + + + + + + + + + + + + + + +     ",
"    + + + + + + + + + + + + + + + + + + + + + + + + + + + + + + + + + + + + + + + + + + + + + + + + + + + + + + + + + + + +     ",
"    + + + + + + + + + + + + + + + + + + + + + + + + + + + + + + + + + + + + + + + + + + + + + + + + + + + + + + + + + + + +     ",
"    + + + + + + + + + + + + + + + + + + + + + + + + + + + + + + + + + + + + + + + + + + + + + + + + + + + + + + + + + + + +     ",
"    + + $ $ o p r r r s t t t t u u u u + + + + x y y z A B B C D D E F F G H I I J J K K L M M N O P P Q R S S S T $ $ + +     ",
"    + + $ $ r s t t t t u u u u v v v v + + + + A B B C D D E F F G H I I J J K K L M M N O P P Q R S S S T U U U V $ $ + +     ",
"    + + $ $ t t u u u u v v v v x y y z + + + + D D E F F G H I I J J K K L M M N O P P Q R S S S T U U U V W W W X $ $ + +     ",
"    + + $ $ u u v v v v x y y z A B B C + + + + F G H I I J J K K L M M N O P P Q R S S S T U U U V W W W X Y Y Y Z $ $ + +     ",
"    + + $ $ v v x y y z A B B C D D E F + + + + I J J K K L M N N O P P Q R S S S T U U U V W W W X Y Y Y Z ` ` `  .$ $ + +     ",
"    + + $ $ y z A B B C D D E F F G H I + + + + K L M N N O P P Q R S S S T U U U V W W W X Y Y Y Z ` ` `  ...+.+.@.$ $ + +     ",
"    + + $ $ B C D D E F F G H I I J J K + + + + N O P P Q R S S S T U U U V W W W #.Y Y Y Z ` ` `  ...+.+.@.$.%.%.&.$ $ + +     ",
"    + + $ $ E F G G H I I J J K K L M N + + + + Q R S S S T U U U V W W W #.Y Y Y Z ` ` `  ...+.+.@.$.%.%.&.*.*.=.=.$ $ + +     ",
"    + + + + + + + + + + + + + + + + + + + + + + + + + + + + + + + + + + + + + + + + + + + + + + + + + + + + + + + + + + + +     ",
"    + + + + + + + + + + + + + + + + + + + + + + + + + + + + + + + + + + + + + + + + + + + + + + + + + + + + + + + + + + + +     ",
"    + + + + + + + + + + + + + + + + + + + + + + + + + + + + + + + + + + + + + + + + + + + + + + + + + + + + + + + + + + + +     ",
"    + + + + + + + + + + + + + + + + + + + + + + + + + + + + + + + + + + + + + + + + + + + + + + + + + + + + + + + + + + + +     ",
"    + + $ $ S S S T U U U W W W W #.Y Y + + + + `  ...+.+.@.$.%.&.&.*.*.=.=.-.-.;.;.>.>.,.'.).).!.!.~.{.{.{.].^.^.^.$ $ + +     ",
"    + + $ $ U U U W W W W #.Y Y Y Z ` ` + + + + +.@.$.%.&.&.*.*.=.=.-.-.;.;.>.>.,.'.).).!.!.~.{.{.{.].^.^.^.^./././.$ $ + +     ",
"    + + $ $ W W W #.Y Y Y Z ` ` `  ...+.+ + + + &.&.*.*.=.=.-.-.;.;.>.>.,.'.).).!.!.~.{.{.{.].^.^.^.^./././././././.$ $ + +     ",
"    + + $ $ Y Y Y Z ` ` `  ...+.+.@.$.%.+ + + + =.=.-.-.;.;.>.>.,.'.).).!.!.~.{.{.{.].^.^.^.^./././././././././././.$ $ + +     ",
"    + + $ $ ` ` `  ...+.+.@.$.%.&.&.*.*.+ + + + ;.;.>.>.,.'.).).!.!.~.{.{.{.].^.^.^.^./././././././././././././././.$ $ + +     ",
"    + + $ $ ..+.+.@.$.%.&.&.*.*.=.=.-.-.+ + + + ,.'.).).!.!.~.{.{.{.].^.^.^.^./././././././././././././././././././.$ $ + +     ",
"    + + $ $ $ $ $ $ $ $ $ $ $ $ $ $ $ $ + + + + $ $ $ $ $ $ $ $ $ $ $ $ $ $ $ $ $ $ $ $ $ $ $ $ $ $ $ $ $ $ $ $ $ $ $ $ + +     ",
"    + + # $ $ $ $ $ $ $ $ $ $ $ $ $ $ $ + + + + $ $ $ $ $ $ $ $ $ $ $ $ $ $ $ $ $ $ $ $ $ $ $ $ $ $ $ $ $ $ $ $ $ $ $ # + +     ",
"    @ + + + + + + + + + + + + + + + + + + + + + + + + + + + + + + + + + + + + + + + + + + + + + + + + + + + + + + + + + + @     ",
"      . + + + + + + + + + + + + + + + + + + + + + + + + + + + + + + + + + + + + + + + + + + + + + + + + + + + + + + + + .       ",
"                                                                                                                                ",
"                                                                                                                                ",
"                                                                                                                                ",
"                                                                                                                                ",
"                                                                                                                                ",
"                                                                                                                                ",
"                                                                                                                                ",
"                                                                                                                                ",
"                                                                                                                                ",
"                                                                                                                                "};
