<?xml version="1.0" encoding="UTF-8" standalone="no"?>
<!-- Created with Inkscape (http://www.inkscape.org/) -->

<svg
   xmlns:dc="http://purl.org/dc/elements/1.1/"
   xmlns:cc="http://creativecommons.org/ns#"
   xmlns:rdf="http://www.w3.org/1999/02/22-rdf-syntax-ns#"
   xmlns:svg="http://www.w3.org/2000/svg"
   xmlns="http://www.w3.org/2000/svg"
   xmlns:sodipodi="http://sodipodi.sourceforge.net/DTD/sodipodi-0.dtd"
   xmlns:inkscape="http://www.inkscape.org/namespaces/inkscape"
   width="50mm"
   height="50mm"
   viewBox="0 0 50 50"
   version="1.1"
   id="svg3019"
   inkscape:version="0.92.3 (2405546, 2018-03-11)"
   sodipodi:docname="adrSheetMain.svg">
  <defs
     id="defs3013" />
  <sodipodi:namedview
     id="base"
     pagecolor="#ffffff"
     bordercolor="#666666"
     borderopacity="1.0"
     inkscape:pageopacity="0.0"
     inkscape:pageshadow="2"
     inkscape:zoom="2"
     inkscape:cx="200.18144"
     inkscape:cy="160"
     inkscape:document-units="mm"
     inkscape:current-layer="layer1"
     showgrid="false"
     inkscape:window-width="1920"
     inkscape:window-height="1017"
     inkscape:window-x="-8"
     inkscape:window-y="-8"
     inkscape:window-maximized="1" />
  <metadata
     id="metadata3016">
    <rdf:RDF>
      <cc:Work
         rdf:about="">
        <dc:format>image/svg+xml</dc:format>
        <dc:type
           rdf:resource="http://purl.org/dc/dcmitype/StillImage" />
        <dc:title></dc:title>
      </cc:Work>
    </rdf:RDF>
  </metadata>
  <g
     inkscape:label="Calque 1"
     inkscape:groupmode="layer"
     id="layer1"
     transform="translate(0,-247)">
    <path
       style="fill:#000000;stroke-width:0.90277123"
       d="M 1.2056532,294.64321 C 0.98589533,293.9293 0.90423868,283.14998 1.0241872,270.6892 L 1.2422948,248.03318 H 25.095107 48.947918 v 23.68677 23.68677 l -23.671345,0.26743 C 6.5594415,295.88559 1.521599,295.67034 1.2056593,294.6434 Z m 14.1866078,-4.7802 v -4.03178 H 8.923704 2.4551435 v 4.03178 4.03177 h 6.4685605 6.468557 z m 32.342796,0 v -4.03178 H 33.180798 18.62654 v 4.03178 4.03177 H 33.180798 47.735057 Z M 15.392261,277.76764 v -4.03178 H 8.923704 2.4551435 v 4.03178 4.03177 h 6.4685605 6.468557 z m 32.342796,0 v -4.03178 H 33.180798 18.62654 v 4.03178 4.03177 H 33.180798 47.735057 Z M 15.392261,265.67227 v -4.03178 H 8.923704 2.4551435 v 4.03178 4.03177 h 6.4685605 6.468557 z m 32.342796,0 v -4.03178 H 33.180798 18.62654 v 4.03178 4.03177 H 33.180798 47.735057 Z M 15.392261,253.5769 v -4.03178 H 8.923704 2.4551435 v 4.03178 4.03177 h 6.4685605 6.468557 z m 32.342796,0 v -4.03178 H 33.180798 18.62654 v 4.03178 4.03177 h 14.554258 14.554259 z"
       id="path3032"
       inkscape:connector-curvature="0" />
  </g>
</svg>
